SplineFontDB: 3.0
FontName: JustLetters
FullName: Just Letters
FamilyName: JustLetters
Weight: Medium
Copyright: Just Letters by Christopher Adams, 2010\nAfter Albrecht Durer, Of the Just Shaping of Letters, 1525 (1917)
Version: 001.000
ItalicAngle: 0
UnderlinePosition: -100
UnderlineWidth: 50
Ascent: 800
Descent: 200
sfntRevision: 0x00010000
LayerCount: 2
Layer: 0 0 "Back"  1
Layer: 1 0 "Fore"  0
XUID: [1021 253 8342797 6890015]
FSType: 0
OS2Version: 3
OS2_WeightWidthSlopeOnly: 0
OS2_UseTypoMetrics: 1
CreationTime: 1269694471
ModificationTime: 1327310991
PfmFamily: 17
TTFWeight: 500
TTFWidth: 5
LineGap: 90
VLineGap: 0
Panose: 2 0 6 3 0 0 0 0 0 0
OS2TypoAscent: 0
OS2TypoAOffset: 1
OS2TypoDescent: 0
OS2TypoDOffset: 1
OS2TypoLinegap: 90
OS2WinAscent: 0
OS2WinAOffset: 1
OS2WinDescent: 0
OS2WinDOffset: 1
HheadAscent: 0
HheadAOffset: 1
HheadDescent: 0
HheadDOffset: 1
OS2SubXSize: 650
OS2SubYSize: 699
OS2SubXOff: 0
OS2SubYOff: 140
OS2SupXSize: 650
OS2SupYSize: 699
OS2SupXOff: 0
OS2SupYOff: 479
OS2StrikeYSize: 49
OS2StrikeYPos: 258
OS2Vendor: 'PfEd'
OS2CodePages: 00000001.00000000
OS2UnicodeRanges: 00000001.00000000.00000000.00000000
MarkAttachClasses: 1
DEI: 91125

StartChar: .notdef
Encoding: 65536 -1 0
Width: 500
Flags: HMW
HStem: 0 50<100 400 100 450> 483 50<100 400 100 100>
VStem: 50 50<50 50 50 483> 400 50<50 483 483 483>
LayerCount: 2
Fore
SplineSet
50 0 m 1
 50 533 l 1
 450 533 l 1
 450 0 l 1
 50 0 l 1
100 50 m 1
 400 50 l 1
 400 483 l 1
 100 483 l 1
 100 50 l 1
EndSplineSet
EndChar

StartChar: A
Encoding: 65 65 2
Width: 370
Flags: HMW
HStem: 68 8<218 227 218 255> 74 7 172 7<203 203> 371 8
VStem: 37 7 128 8 192 6 294 5
LayerCount: 2
Fore
SplineSet
39 112 m 1x3f
 34 120 37 172 40 181 c 0
 42 186 65 209 83 226 c 0
 91 234 99 245 108 253 c 0
 121 265 121 264 106 269 c 0
 95 272 83 276 73 282 c 0
 36 307 2 380 64 438 c 0
 86 458 71 430 161 518 c 0
 173 530 172 538 211 515 c 1
 244 494 298 472 306 463 c 0
 311 457 303 445 302 438 c 0
 301 426 302 416 302 404 c 0
 301 370 299 404 299 59 c 0
 299 48 305 45 313 38 c 2
 341 14 l 2
 344 11 356 4 356 -1 c 0
 356 -8 344 -14 340 -19 c 0
 328 -34 311 -47 298 -62 c 0
 270 -94 274 -76 255 -64 c 0
 234 -51 198 -12 187 -7 c 0
 185 -6 181 -7 179 -5 c 0
 169 -2 174 2 156 -16 c 0
 152 -20 147 -23 143 -26 c 0
 125 -43 104 -76 92 -68 c 0
 85 -64 81 -57 74 -52 c 0
 60 -40 45 -30 33 -17 c 0
 29 -12 17 -8 16 0 c 0
 15 13 42 2 37 88 c 0
 37 93 33 110 39 112 c 1x3f
159 508 m 0
 152 501 108 462 107 457 c 0
 106 449 165 424 167 425 c 0
 174 427 176 438 178 444 c 0
 206 506 207 507 199 514 c 0
 175 531 175 524 159 508 c 0
204 490 m 1
 204 490 174 427 177 421 c 1
 180 413 255 380 257 381 c 0
 259 383 281 420 292 442 c 0
 294 446 302 456 300 460 c 0
 298 465 268 478 252 487 c 2
 224 502 l 2
 208 510 212 504 204 490 c 1
93 435 m 0
 47 413 30 351 58 308 c 0
 91 257 172 267 191 293 c 0
 194 298 192 312 192 318 c 0
 192 320 194 398 191 404 c 0
 188 408 182 410 177 412 c 2
 127 437 l 2
 108 446 111 444 93 435 c 0
295 428 m 1
 289 427 288 422 286 418 c 0
 278 405 265 386 268 381 c 0
 271 377 292 376 294 381 c 0
 295 382 296 420 295 428 c 1
201 398 m 0
 197 396 198 380 201 378 c 0
 204 376 208 378 228 378 c 0
 230 378 235 377 237 379 c 1
 241 381 233 385 231 386 c 0
 224 389 204 400 201 398 c 0
199 371 m 0
 196 367 198 357 198 351 c 0
 198 341 194 292 200 286 c 0
 203 282 241 284 249 283 c 0
 296 281 294 274 294 302 c 0
 293 343 295 366 293 370 c 0
 290 375 201 373 199 371 c 0
133 367 m 0
 138 369 144 361 138 358 c 0
 132 355 126 364 133 367 c 0
44 389 m 0
 66 435 89 440 99 447 c 1
 98 448 97 448 96 448 c 0
 84 448 45 421 38 373 c 1
 38 365 37 357 38 349 c 1
 38 349 l 1
 38 351 36 373 44 389 c 0
134 352 m 0
 141 354 144 342 138 340 c 0
 130 338 126 350 134 352 c 0
188 281 m 0
 176 279 164 270 152 267 c 0
 148 266 140 266 138 262 c 0
 135 257 136 157 136 157 c 2
 135 121 132 84 134 48 c 0
 135 38 178 1 184 2 c 0
 192 4 191 18 191 18 c 1
 191 43 192 44 192 268 c 0
 192 271 194 283 188 281 c 0
293 177 m 1
 294 179 296 270 292 273 c 0
 285 278 242 275 214 278 c 0
 190 281 197 270 198 202 c 0
 199 197 195 181 201 179 c 0
 209 177 221 178 229 179 c 1
 293 177 l 1
50 182 m 1
 55 180 87 181 110 182 c 0
 115 182 126 178 129 183 c 0
 131 187 129 198 128 203 c 0
 128 206 130 211 130 215 c 2
 130 215 131 259 128 260 c 0
 120 262 99 235 89 223 c 1
 89 223 52 186 50 182 c 1
228 232 m 1
 228 232 243 246 245 233 c 0
 247 225 246 218 248 210 c 0
 250 203 257 206 259 203 c 0
 262 200 249 194 247 193 c 0
 234 188 242 211 228 199 c 1
 220 191 213 195 212 209 c 0
 211 221 218 225 228 232 c 1
233 226 m 1
 231 225 230 224 228 223 c 0
 218 215 233 202 233 213 c 1
 234 221 234 224 233 226 c 1
43 172 m 1
 46 160 41 170 43 106 c 0
 44 94 37 82 57 81 c 0x7f
 125 80 123 78 126 82 c 0
 128 84 130 134 128 156 c 0
 128 161 131 169 126 172 c 0
 119 177 107 174 100 174 c 0
 86 172 71 175 57 175 c 0
 51 175 49 171 43 172 c 1
203 172 m 1
 196 170 199 158 198 152 c 0
 195 128 197 81 199 78 c 0
 202 74 215 76 221 76 c 0xbf
 233 76 244 74 256 74 c 0x7f
 260 74 264 76 268 76 c 0xbf
 275 76 282 72 290 75 c 0
 298 78 291 117 293 145 c 0
 294 151 296 164 293 169 c 0
 290 174 278 171 273 172 c 0
 245 175 203 172 203 172 c 1
104 74 m 1x7f
 102 67 120 54 126 52 c 1
 128 57 129 68 128 70 c 0
 126 78 110 73 104 74 c 1x7f
78 74 m 1
 70 73 63 74 55 74 c 0
 41 74 45 76 43 47 c 0
 42 29 54 46 54 46 c 1
 61 54 75 64 78 74 c 1
69 54 m 0
 63 47 56 42 50 35 c 0
 47 31 44 25 40 20 c 0
 37 17 27 8 27 3 c 0
 28 -9 49 -19 57 -27 c 0
 105 -71 96 -66 118 -42 c 0
 138 -20 167 -1 165 6 c 0
 164 13 153 18 149 22 c 0
 135 35 120 49 105 61 c 0
 84 78 84 72 69 54 c 0
255 68 m 1xbf
 245 72 201 71 199 68 c 0
 191 59 197 39 197 28 c 0
 197 26 195 18 198 17 c 0
 204 15 253 62 255 68 c 1xbf
292 59 m 1
 296 71 278 70 288 62 c 1
 289 60 291 60 292 59 c 1
231 35 m 0
 193 -2 185 4 208 -16 c 0
 266 -66 273 -73 278 -72 c 0
 284 -71 304 -45 332 -18 c 1
 351 2 350 -2 335 11 c 0
 255 78 278 81 231 35 c 0
EndSplineSet
EndChar

StartChar: B
Encoding: 66 66 3
Width: 356
Flags: HMW
HStem: 71 7 167 8 269 8 371 17<232 247> 375 5 464 6 560 5 649 6
VStem: 42 10<-8 -1> 48 6 82 13 147 7 147 7 207 6 309 6<61 66>
LayerCount: 2
Fore
SplineSet
148 763 m 0xe766
 156 767 155 754 154 751 c 0
 152 733 153 715 153 697 c 2
 153 600 l 2
 153 586 151 572 152 558 c 0
 156 463 145 458 162 458 c 1
 178 459 193 485 229 516 c 0
 241 527 242 544 267 514 c 0
 284 495 304 480 320 461 c 0
 328 452 313 447 313 439 c 0
 311 350 315 289 317 174 c 0
 317 156 315 137 315 118 c 0
 315 4 333 40 268 2 c 0
 240 -14 212 -27 184 -42 c 0
 121 -76 141 -82 88 -40 c 1
 55 -17 l 2
 44 -9 42 -9 42 -6 c 0xe7b6
 42 -4 42 -1 43 5 c 0
 44 7 46 83 45 121 c 0
 44 173 47 226 48 278 c 0
 49 343 46 639 49 652 c 0
 51 659 122 728 140 752 c 0
 142 755 144 761 148 763 c 0xe766
146 745 m 1
 138 743 132 731 126 725 c 0
 122 720 59 661 63 655 c 1
 63 655 142 652 144 656 c 1
 147 659 146 744 146 745 c 1
54 629 m 0
 53 611 53 569 56 566 c 0
 57 565 78 565 78 565 c 1
 117 565 137 563 144 564 c 0
 149 565 147 578 147 582 c 0
 145 642 156 648 128 649 c 0
 48 651 56 651 54 629 c 0
100 560 m 0
 61 556 61 562 56 558 c 0
 51 554 54 488 54 488 c 2
 54 483 53 474 57 471 c 0
 62 467 73 470 78 470 c 0
 89 470 100 472 111 471 c 0
 121 470 133 468 144 470 c 0
 149 471 147 486 147 490 c 0
 147 543 148 553 146 558 c 0
 144 561 135 559 133 558 c 0
 122 557 111 561 100 560 c 0
234 512 m 0
 225 506 218 497 210 489 c 0
 198 476 175 459 177 453 c 1
 177 449 184 446 186 443 c 2
 212 416 l 2
 222 407 240 388 243 388 c 0xf726
 251 388 295 433 300 439 c 0
 319 459 324 448 279 493 c 1
 257 515 l 2
 243 528 244 520 234 512 c 0
125 464 m 0
 114 464 61 469 56 461 c 0
 53 456 54 383 56 381 c 0
 59 377 87 381 114 380 c 0
 123 379 136 377 144 379 c 0
 151 381 147 436 147 444 c 0xef36
 147 463 148 464 125 464 c 0
159 451 m 1
 151 450 154 435 154 428 c 0
 154 402 153 376 153 350 c 0xf736
 153 292 155 232 153 174 c 2
 152 72 l 1
 155 38 147 51 165 36 c 2
 185 18 l 2
 199 6 209 -3 207 9 c 0
 205 29 212 40 208 110 c 0
 207 133 210 110 211 293 c 0
 211 325 214 356 213 388 c 0xf72e
 213 392 212 396 212 400 c 0
 211 412 214 406 200 420 c 0
 191 430 175 454 159 451 c 1
245 378 m 1
 253 376 301 375 305 378 c 0
 309 381 309 430 306 432 c 0
 301 434 293 422 290 420 c 0
 244 378 249 384 245 378 c 1
243 378 m 1
 241 381 224 400 221 398 c 0
 216 396 219 379 222 377 c 0
 226 374 238 377 243 378 c 1
122 375 m 0xef26
 84 370 65 379 57 372 c 0
 53 369 55 356 54 352 c 0
 53 332 52 280 56 278 c 1
 56 278 80 274 88 278 c 1
 91 279 91 284 95 284 c 0
 99 285 99 279 102 278 c 0
 110 276 122 278 131 278 c 0
 141 278 148 274 148 283 c 0
 145 352 150 368 146 372 c 0
 144 373 124 375 122 375 c 0xef26
307 288 m 0
 307 350 310 364 307 368 c 0
 302 375 233 371 232 371 c 0xf726
 215 370 218 376 218 294 c 0
 218 264 213 275 273 275 c 0
 310 275 307 272 307 288 c 0
95 224 m 1
 97 226 101 230 104 229 c 1
 112 229 119 211 101 189 c 0
 96 183 96 180 78 188 c 0
 71 190 76 196 78 199 c 0
 86 217 80 235 82 246 c 0
 84 252 90 262 87 268 c 0
 85 271 65 271 58 269 c 0
 53 267 53 256 53 252 c 0
 53 234 50 213 53 195 c 0xe766
 54 192 51 177 56 175 c 0
 65 172 78 175 88 175 c 0
 101 176 140 173 146 176 c 1
 151 180 146 224 148 248 c 0
 149 253 150 265 146 269 c 0
 143 272 101 272 98 268 c 0
 96 266 93 230 95 224 c 1
308 175 m 1
 309 178 308 241 308 244 c 0
 308 250 310 262 306 268 c 0
 304 271 226 272 219 267 c 0
 215 264 218 253 218 249 c 0
 218 184 213 179 218 176 c 0
 226 170 278 181 308 175 c 1
96 215 m 0
 94 213 91 196 97 198 c 0
 105 201 102 218 96 215 c 0
218 168 m 0
 214 164 213 78 215 76 c 0
 218 73 305 75 306 75 c 0
 313 77 307 122 309 149 c 0
 309 154 311 165 308 169 c 0
 306 171 295 169 292 170 c 0
 274 172 224 174 218 168 c 0
54 167 m 0
 52 165 52 130 52 99 c 1xe7a6
 53 79 49 77 60 78 c 0
 142 82 150 66 148 98 c 0
 145 135 150 162 146 168 c 0
 143 171 56 172 54 167 c 0
52 8 m 1
 53 8 l 1xe766
 65 25 109 62 108 69 c 0
 108 72 97 71 95 71 c 0
 52 74 51 76 52 54 c 0
 52 39 48 22 52 8 c 1
124 71 m 1
 126 65 141 51 147 52 c 1xe72e
 147 57 148 66 145 70 c 0
 143 74 128 72 124 71 c 1
212 16 m 0
 212 14 211 4 212 0 c 0
 214 -6 222 -13 228 -12 c 0
 233 -11 305 27 308 32 c 0
 312 37 309 52 309 59 c 0
 309 73 308 67 248 69 c 0
 209 70 212 76 212 16 c 0
99 49 m 0
 81 31 52 2 52 -4 c 1xe7a6
 53 -9 92 -36 111 -52 c 0
 115 -54 125 -64 130 -62 c 0
 135 -60 131 -62 177 -11 c 0
 197 11 188 7 173 20 c 1
 132 53 l 2
 110 71 115 65 99 49 c 0
149 -54 m 1
 155 -52 201 -27 203 -25 c 0
 206 -22 207 -7 204 -4 c 0
 197 2 192 -2 188 -7 c 0
 171 -25 150 -49 149 -54 c 1
214 -14 m 1
 213 -15 l 1
 216 -18 l 1
 214 -14 l 1
EndSplineSet
EndChar

StartChar: C
Encoding: 67 67 4
Width: 232
Flags: HMW
HStem: 77 6 172 6 275 6 378 7 469 6 521 7<161 172 161 191>
VStem: 35 11<-2 0> 42 10 142 9 192 7
LayerCount: 2
Fore
SplineSet
142 530 m 0xfdc0
 149 532 157 528 164 528 c 0
 179 528 195 529 211 529 c 1
 218 530 223 527 230 528 c 0
 260 530 267 530 248 501 c 0
 200 426 206 430 198 427 c 0
 186 421 154 432 152 420 c 0
 145 382 152 270 150 98 c 0
 149 51 145 56 160 43 c 0
 204 4 207 17 182 -7 c 0
 167 -22 153 -38 137 -52 c 0
 133 -55 127 -66 122 -67 c 0
 114 -69 107 -60 102 -57 c 0
 85 -45 67 -32 52 -18 c 0xfdc0
 48 -15 35 -7 35 -2 c 0xfec0
 35 3 41 6 42 12 c 0
 49 81 42 415 44 425 c 0
 47 436 64 448 72 456 c 0
 74 458 91 483 118 508 c 0
 126 515 133 528 142 530 c 0xfdc0
151 521 m 0
 149 518 148 437 152 433 c 0
 154 431 159 432 161 432 c 0
 171 432 189 431 191 435 c 1
 191 435 192 482 192 506 c 0
 192 509 194 519 191 521 c 1
 189 523 154 526 151 521 c 0
199 439 m 1
 201 439 l 1
 230 491 250 516 248 519 c 0
 247 521 204 527 200 519 c 0
 198 515 198 442 199 439 c 1
101 477 m 1
 105 474 110 476 114 475 c 0
 143 472 142 475 142 486 c 0
 142 518 143 518 141 518 c 0
 136 520 102 478 101 477 c 1
78 452 m 0
 70 443 56 434 52 422 c 0
 50 418 51 412 51 408 c 0
 48 381 47 383 73 384 c 0
 89 385 105 382 122 383 c 0
 144 385 142 374 143 422 c 1
 145 465 148 470 131 469 c 0
 82 468 99 474 78 452 c 0
57 378 m 0
 49 377 50 365 52 335 c 0
 54 291 49 290 52 284 c 0
 54 280 70 281 74 281 c 0
 95 284 118 278 138 282 c 0
 146 284 142 297 142 302 c 0
 142 320 142 339 142 357 c 0
 142 361 145 373 142 376 c 0
 139 380 126 376 122 377 c 0
 101 379 78 380 57 378 c 0
122 275 m 0
 45 270 52 290 52 252 c 2
 52 200 l 1
 51 174 51 176 76 178 c 0
 97 180 118 173 138 177 c 0
 145 179 142 176 142 253 c 1
 143 276 145 277 122 275 c 0
110 255 m 1
 113 256 114 252 113 250 c 0
 105 228 85 244 83 236 c 0
 78 220 104 217 94 209 c 0
 77 196 66 225 68 232 c 0
 70 237 75 240 77 245 c 0
 84 258 81 251 96 250 c 0
 104 249 105 252 110 255 c 1
52 148 m 0
 52 134 52 118 52 103 c 0
 52 99 50 88 53 84 c 0
 55 82 53 81 119 82 c 0
 155 83 140 75 143 150 c 0
 144 173 141 170 121 170 c 0
 65 170 75 174 63 172 c 0
 48 170 52 171 52 148 c 0
110 75 m 1
 106 77 67 77 67 77 c 2
 63 77 54 78 52 73 c 0
 51 71 48 21 53 19 c 0
 55 18 60 24 62 26 c 0
 64 28 106 64 110 75 c 1
142 58 m 1
 143 62 144 73 140 76 c 1
 138 77 123 77 122 74 c 1
 122 70 136 60 142 58 c 1
101 54 m 1
 62 17 l 2
 57 13 46 7 46 0 c 0xfec0
 46 -5 58 -12 61 -15 c 0
 74 -27 89 -37 104 -48 c 1
 121 -61 121 -61 137 -42 c 0
 160 -15 184 3 184 10 c 0
 184 15 184 12 132 58 c 0
 111 76 114 65 101 54 c 1
EndSplineSet
EndChar

StartChar: D
Encoding: 68 68 5
Width: 364
Flags: HMW
HStem: 68 7<68 115> 169 7 272 5 273 8<62 130> 374 8 423 7
VStem: 46 7 142 7 207 8 211 5 309 7
LayerCount: 2
Fore
SplineSet
310 483 m 1xdf20
 316 483 316 481 315 438 c 0
 314 407 318 96 318 96 c 2
 318 88 320 79 320 71 c 0
 320 16 318 25 305 17 c 2
 275 -1 l 2
 242 -20 208 -39 173 -54 c 0
 151 -64 142 -80 124 -68 c 0
 118 -64 53 -16 50 -9 c 0
 44 2 48 18 48 29 c 0
 47 60 46 90 46 121 c 0
 46 191 46 189 48 191 c 0
 50 193 52 191 53 189 c 0
 56 177 45 174 81 176 c 0
 144 178 144 167 144 188 c 0
 143 275 147 272 130 273 c 1
 130 273 88 274 86 273 c 0
 69 263 105 242 107 223 c 0
 109 211 89 180 81 192 c 0
 79 196 78 201 75 205 c 0
 73 208 70 210 69 214 c 0
 67 226 90 223 79 240 c 0
 62 265 84 271 70 273 c 0
 67 274 56 274 54 272 c 0
 52 270 53 261 53 258 c 0
 53 245 52 232 52 218 c 0
 52 215 55 196 49 196 c 1
 45 197 46 206 46 208 c 0
 46 450 29 414 66 449 c 1
 119 502 l 1
 131 516 146 514 116 544 c 0
 112 548 58 611 47 623 c 0
 37 633 49 638 63 651 c 2
 98 683 l 2
 121 705 111 705 150 666 c 1
 239 572 l 2
 259 551 277 530 295 508 c 0
 300 502 314 492 310 483 c 1xdf20
99 675 m 0
 48 622 42 642 75 601 c 0
 103 568 98 577 113 589 c 0
 127 600 141 612 153 624 c 0
 170 640 173 630 140 666 c 2
 124 682 l 2
 116 690 116 693 99 675 c 0
156 618 m 1
 117 586 l 2
 100 572 94 575 135 533 c 2
 158 510 l 2
 169 498 165 499 183 516 c 0
 221 551 235 555 235 563 c 1
 234 567 180 623 180 623 c 1
 168 635 168 627 156 618 c 1
188 511 m 0
 162 489 169 499 220 444 c 1
 239 422 231 428 288 473 c 0
 305 486 309 486 290 505 c 0
 231 567 258 572 188 511 c 0
138 510 m 0
 130 508 121 495 115 488 c 0
 105 477 77 454 61 438 c 0
 49 426 69 430 77 430 c 0
 81 430 133 429 140 432 c 0
 142 433 145 512 138 510 c 0
149 508 m 1
 147 500 151 432 149 394 c 0
 147 294 151 194 153 94 c 0
 155 30 150 40 189 12 c 1
 207 -1 l 1xcfa0
 208 -3 212 -6 214 -4 c 0
 215 -4 214 -12 211 176 c 0xcf60
 211 195 213 214 212 232 c 0
 210 340 207 393 207 411 c 0xcfa0
 207 452 216 439 192 462 c 1
 178 477 157 506 149 508 c 1
310 482 m 1
 295 472 283 462 269 451 c 0
 262 446 252 439 249 431 c 1
 252 429 278 429 293 429 c 0
 314 429 310 424 309 476 c 0
 309 478 310 480 310 482 c 1
215 438 m 1
 215 432 216 430 222 431 c 1
 222 435 219 437 215 438 c 1
223 424 m 0
 211 423 214 405 215 395 c 0
 216 384 210 380 242 382 c 0
 295 386 309 376 309 390 c 0
 309 435 314 424 235 422 c 0
 231 422 228 425 223 424 c 0
50 413 m 0
 49 407 50 384 53 382 c 0
 57 380 139 381 140 381 c 0
 144 382 142 388 142 391 c 0
 142 399 143 407 143 415 c 0
 143 427 144 422 111 423 c 0
 49 425 52 424 50 413 c 0
235 376 m 0
 230 376 220 378 217 373 c 0
 214 367 216 359 216 352 c 0
 216 284 216 277 225 277 c 1xef60
 232 276 307 277 309 279 c 0
 311 281 308 372 307 374 c 0
 304 378 241 377 235 376 c 0
74 281 m 0xdf20
 99 281 139 277 142 282 c 0
 145 286 142 300 142 306 c 0
 142 328 145 351 141 373 c 1
 131 373 120 375 110 375 c 0
 102 375 93 373 85 374 c 0
 77 375 70 374 62 374 c 0
 45 374 52 375 52 302 c 0
 52 280 51 281 74 281 c 0xdf20
217 248 m 0
 217 231 217 216 216 199 c 0
 215 170 222 177 242 178 c 0
 317 181 310 166 310 199 c 2
 310 252 l 1
 309 272 314 272 292 272 c 0xef60
 210 272 218 278 217 248 c 0
89 225 m 0
 80 223 88 206 93 207 c 0
 101 208 95 226 89 225 c 0
220 113 m 0
 220 111 216 80 221 76 c 0
 226 73 241 74 247 75 c 0
 267 77 289 72 309 76 c 0
 314 77 312 85 312 88 c 0
 312 138 312 169 310 171 c 0
 308 173 269 172 265 172 c 0
 255 170 245 171 235 171 c 0
 210 173 220 171 220 113 c 0
77 75 m 2
 115 75 l 1
 160 73 144 68 145 144 c 0
 145 150 147 162 143 168 c 0
 141 171 128 169 124 169 c 0
 112 169 57 174 54 167 c 0
 52 162 53 102 53 99 c 0
 52 72 52 75 77 75 c 2
221 68 m 0
 219 64 220 1 220 0 c 0
 221 -32 239 -9 281 11 c 0
 290 16 304 20 311 29 c 0
 316 36 312 66 310 68 c 0
 308 70 223 71 221 68 c 0
121 68 m 1
 123 62 134 55 140 51 c 0
 154 41 147 67 144 69 c 0
 140 71 125 70 121 68 c 1
106 68 m 1
 95 71 82 68 70 68 c 0
 67 68 59 69 57 67 c 0
 53 63 54 8 56 6 c 0
 59 4 68 17 70 19 c 0
 82 35 98 50 106 68 c 1
100 48 m 2
 70 11 l 2
 67 7 58 -2 60 -8 c 0
 62 -13 86 -31 114 -53 c 1
 131 -65 128 -74 146 -46 c 0
 185 13 195 0 170 20 c 2
 130 52 l 2
 108 69 114 66 100 48 c 2
145 -60 m 1
 153 -59 212 -26 213 -24 c 0
 220 -15 206 -5 198 -2 c 0
 186 3 188 -3 179 -14 c 0
 177 -16 147 -52 145 -60 c 1
EndSplineSet
EndChar

StartChar: E
Encoding: 69 69 6
Width: 270
Flags: HMW
HStem: 72 8 165 9 273 8 370 7 422 7
VStem: 47 10 79 27<228 250> 140 7 144 8
LayerCount: 2
Fore
SplineSet
138 525 m 0xfe80
 144 527 146 521 149 518 c 1
 232 465 l 2
 250 453 259 454 247 438 c 2
 172 347 l 2
 143 310 150 320 152 292 c 0
 154 265 153 220 153 202 c 0
 153 184 154 164 154 145 c 0
 154 37 151 49 163 37 c 0
 189 10 198 8 198 0 c 0
 197 -9 162 -33 154 -41 c 0
 102 -89 136 -79 55 -17 c 0
 51 -15 37 -6 37 0 c 0
 38 8 50 11 51 19 c 0
 53 31 47 345 47 374 c 0
 47 389 43 407 46 422 c 0
 49 436 86 468 109 497 c 0
 117 505 127 521 138 525 c 0xfe80
137 513 m 0
 132 513 120 497 112 489 c 0
 103 481 95 471 87 462 c 0
 74 447 78 449 88 441 c 0
 104 426 101 427 128 428 c 1
 146 430 140 441 140 450 c 0xff
 140 501 139 513 137 513 c 0
145 511 m 1
 144 501 147 492 147 482 c 0
 150 408 140 401 156 390 c 0
 194 362 176 364 234 432 c 0
 252 454 238 451 222 463 c 0
 205 475 151 510 145 511 c 1
89 428 m 1
 87 435 76 444 69 441 c 0
 67 439 57 431 61 428 c 0
 64 426 86 428 89 428 c 1
115 422 m 1
 118 414 139 400 141 401 c 1
 141 401 143 420 139 423 c 0
 138 424 118 423 115 422 c 1
65 422 m 0
 63 422 57 423 55 422 c 0
 50 419 53 379 55 377 c 0
 57 375 138 376 139 376 c 0
 144 378 142 392 139 395 c 0
 136 398 131 401 127 403 c 0
 96 426 105 422 65 422 c 0
149 385 m 1
 147 380 148 334 154 334 c 0
 156 334 177 361 177 365 c 0
 177 370 157 383 149 385 c 1
66 370 m 0
 64 370 58 370 56 368 c 0
 51 364 54 283 57 281 c 0
 62 278 136 279 143 280 c 0
 151 281 144 303 144 346 c 0xfe80
 144 379 152 370 66 370 c 0
68 273 m 0
 65 273 59 274 57 272 c 0
 55 270 54 181 58 176 c 0
 61 173 140 174 140 174 c 1
 153 176 145 215 147 243 c 0xff
 148 250 150 265 146 271 c 0
 144 274 141 273 68 273 c 0
79 229 m 0
 79 231 102 256 106 250 c 0
 107 248 105 244 106 242 c 0
 108 238 113 237 113 232 c 0
 113 225 101 224 99 218 c 0
 96 210 115 220 104 204 c 0
 103 202 103 201 101 200 c 0
 89 196 85 214 82 221 c 0
 81 223 79 227 79 229 c 0
95 225 m 1
 101 230 97 233 95 232 c 0
 93 231 92 230 95 225 c 1
58 167 m 0
 56 165 57 83 59 80 c 1
 63 77 77 78 82 78 c 0
 103 80 125 75 145 78 c 0
 151 80 149 94 149 98 c 0
 146 160 151 158 146 165 c 0
 143 169 61 172 58 167 c 0
59 22 m 1
 65 24 68 30 73 33 c 2
 102 58 l 2
 129 81 97 69 78 73 c 1
 78 72 l 1
 74 74 61 75 59 70 c 0
 57 68 56 31 59 22 c 1
130 69 m 1
 147 53 l 1
 150 55 150 70 146 72 c 0
 142 74 131 74 130 69 c 1
102 52 m 0
 90 40 75 29 62 17 c 0
 44 0 44 -1 60 -14 c 1
 86 -34 114 -63 121 -62 c 0
 125 -62 140 -45 173 -17 c 0
 191 -1 200 -4 152 40 c 0
 117 72 127 75 102 52 c 0
EndSplineSet
EndChar

StartChar: F
Encoding: 70 70 7
Width: 248
Flags: HMW
HStem: 218 13 379 6<78 78> 440 5 477 5 528 8 577 7<56 84 56 137> 676 5<120 130 101 131> 768 7
VStem: 47 7 139 6
LayerCount: 2
Fore
SplineSet
139 774 m 0
 147 777 167 774 276 775 c 0
 291 775 275 761 263 748 c 2
 216 701 l 2
 208 693 199 679 189 676 c 0
 177 671 149 684 145 668 c 0
 144 665 145 667 145 568 c 0
 145 525 145 534 163 534 c 0
 218 534 225 534 226 528 c 0
 226 524 197 442 192 440 c 0
 185 437 152 443 147 437 c 0
 146 436 145 437 145 370 c 2
 148 52 l 1
 150 33 184 13 184 3 c 0
 184 -4 166 -15 152 -30 c 0
 106 -75 111 -83 90 -62 c 0
 78 -50 66 -40 56 -27 c 1
 49 -19 34 -11 32 0 c 0
 30 11 48 16 48 26 c 0
 49 58 47 90 47 348 c 2
 47 411 l 2
 47 439 52 439 40 440 c 0
 15 441 13 439 13 444 c 0
 12 454 40 504 47 528 c 0
 49 535 47 544 47 551 c 0
 47 716 37 669 75 711 c 0
 82 719 131 771 139 774 c 0
163 768 m 0
 159 768 148 771 145 768 c 0
 139 762 144 708 144 702 c 0
 144 697 142 687 147 683 c 0
 151 680 182 682 182 682 c 1
 193 683 187 680 239 732 c 0
 243 736 246 741 249 745 c 0
 267 762 269 765 268 767 c 0
 266 771 198 769 163 768 c 0
118 681 m 0
 140 681 139 679 138 702 c 0
 138 709 139 754 136 762 c 1
 128 758 83 710 59 685 c 1
 59 684 l 1
 62 682 84 681 118 681 c 0
74 583 m 0
 94 583 116 581 135 584 c 0
 139 584 140 589 138 657 c 0
 137 677 142 676 120 676 c 0
 92 675 59 676 55 672 c 0
 51 668 52 657 53 651 c 0
 59 583 38 583 74 583 c 0
138 542 m 0
 138 554 141 574 137 577 c 0
 134 579 58 580 56 577 c 1
 50 572 53 536 55 535 c 0
 57 534 59 535 61 535 c 0
 128 537 138 524 138 542 c 0
139 518 m 0
 139 521 140 526 137 528 c 0
 129 532 80 525 54 530 c 1
 52 519 55 507 53 496 c 0
 51 478 52 483 128 482 c 0
 142 481 139 478 139 518 c 0
158 446 m 0
 199 446 186 445 194 459 c 1
 200 471 220 523 218 525 c 0
 216 528 152 532 147 526 c 0
 144 523 145 513 145 509 c 0
 145 444 140 446 158 446 c 0
46 508 m 1
 39 498 22 456 22 451 c 0
 22 443 44 443 47 448 c 0
 51 454 45 466 48 508 c 1
 46 508 l 1
54 468 m 0
 54 463 50 449 56 446 c 0
 61 444 72 445 78 445 c 0
 131 445 136 444 138 448 c 1
 138 448 142 473 138 475 c 0
 136 476 96 478 88 477 c 0
 56 473 54 483 54 468 c 0
77 385 m 0
 95 385 117 380 135 384 c 0
 140 385 139 392 139 395 c 2
 139 428 l 2
 139 444 133 440 120 440 c 0
 105 440 87 441 72 439 c 0
 54 437 53 448 53 398 c 0
 53 379 63 385 77 385 c 0
82 218 m 1
 80 217 74 215 74 219 c 0
 73 225 85 229 88 233 c 0
 94 242 86 256 93 264 c 0
 102 275 119 264 118 260 c 1
 114 251 100 257 98 255 c 0
 96 254 97 234 103 231 c 0
 106 229 109 232 113 231 c 0
 120 229 115 219 108 218 c 0
 102 217 97 222 94 188 c 0
 92 175 99 179 105 178 c 0
 143 174 140 180 140 188 c 0
 140 197 140 207 141 215 c 0
 143 247 140 279 140 310 c 0
 140 369 139 377 137 378 c 0
 132 380 97 377 78 379 c 0
 72 380 60 381 55 378 c 1
 51 374 51 287 56 283 c 0
 61 278 133 283 135 278 c 0
 137 270 55 284 53 272 c 0
 51 266 53 182 55 179 c 1
 59 174 82 177 84 181 c 0
 86 184 83 216 82 218 c 1
95 168 m 0
 91 158 97 138 88 138 c 0
 85 138 87 158 87 158 c 2
 87 173 84 174 67 172 c 0
 51 170 53 175 54 102 c 0
 54 75 48 80 116 80 c 0
 138 80 141 69 141 117 c 0
 141 129 139 143 140 155 c 0
 141 158 142 168 140 170 c 0
 138 172 97 176 95 168 c 0
54 31 m 1
 65 38 l 1
 88 62 l 1
 97 74 l 1
 65 76 l 1
 56 74 l 1
 54 61 l 1
 54 31 l 1
122 73 m 1
 123 70 134 55 138 57 c 0
 142 58 140 70 138 72 c 0
 135 76 126 74 122 73 c 1
92 58 m 1
 54 21 l 1
 29 -5 40 2 89 -52 c 0
 103 -68 101 -74 136 -37 c 0
 147 -25 178 -3 176 5 c 0
 175 11 143 38 124 59 c 0
 104 81 110 74 92 58 c 1
EndSplineSet
EndChar

StartChar: G
Encoding: 71 71 8
Width: 387
Flags: HMW
HStem: -62 7<223 253> 72 8 172 7<69 74> 176 7<203 283> 277 8 377 6 438 7 527 6<175 175> 528 8
VStem: 26 6 119 5 124 8 187 6 193 7 277 6 286 2
LayerCount: 2
Fore
SplineSet
283 425 m 0xceff
 283 413 289 364 289 302 c 1
 295 -54 l 1
 297 -65 301 -61 287 -74 c 2
 287 -74 153 -194 135 -206 c 0
 127 -211 121 -221 111 -222 c 0
 99 -223 75 -191 45 -169 c 0
 43 -167 27 -155 27 -152 c 0
 27 -147 36 -139 39 -136 c 2
 79 -92 l 2
 102 -65 93 -74 79 -58 c 0
 65 -42 48 -29 33 -14 c 0
 29 -10 19 -6 17 0 c 0
 15 6 26 10 27 16 c 1
 26 82 l 1
 21 161 27 269 24 348 c 0
 23 357 20 371 23 380 c 0
 27 390 37 399 43 409 c 0
 75 467 84 476 110 522 c 0
 123 544 119 530 175 532 c 1xcf7f
 243 536 337 530 370 536 c 0
 398 541 378 520 374 512 c 0
 371 504 333 442 331 441 c 0
 320 428 288 444 284 436 c 0
 282 433 283 428 283 425 c 0xceff
280 509 m 1
 280 509 281 448 284 446 c 0
 286 444 292 444 294 444 c 0
 327 439 327 446 335 460 c 0
 372 523 389 529 363 528 c 0xceff
 277 527 281 534 280 509 c 1
124 526 m 0
 122 523 124 509 124 505 c 0
 126 478 120 452 126 444 c 0
 128 442 174 443 176 443 c 0
 190 445 187 442 187 504 c 0
 187 530 185 527 175 527 c 2xcf7f
 175 527 126 529 124 526 c 0
193 506 m 2
 193 465 l 1
 194 442 189 442 214 444 c 0
 234 446 255 442 274 445 c 0
 279 447 272 484 274 507 c 0
 277 532 277 528 254 527 c 0
 187 525 193 539 193 506 c 2
115 516 m 1
 113 511 108 507 106 502 c 0
 74 446 73 452 74 447 c 0
 75 440 109 441 110 442 c 0
 122 444 119 437 119 498 c 0
 119 504 118 510 118 516 c 1
 115 516 l 1
259 438 m 0
 201 438 199 440 196 437 c 0
 191 433 195 385 197 383 c 1
 199 380 210 382 214 382 c 0
 232 382 252 381 270 383 c 0
 283 385 277 382 277 420 c 0
 277 438 279 438 259 438 c 0
72 438 m 0
 66 436 65 432 61 428 c 1
 59 424 31 386 36 382 c 0
 41 378 97 382 104 383 c 0
 114 384 122 379 120 394 c 0
 118 413 123 430 119 435 c 0
 117 438 75 439 72 438 c 0
169 12 m 1
 199 33 194 36 191 108 c 0
 188 190 191 181 190 189 c 1
 190 203 189 217 189 231 c 0
 189 235 190 238 189 242 c 2
 189 335 l 1
 190 349 191 435 184 437 c 0
 172 440 153 438 140 438 c 0
 126 438 123 438 126 400 c 0
 133 332 126 296 132 54 c 0
 132 42 127 50 169 12 c 1
196 374 m 0
 194 372 197 308 197 306 c 0
 198 278 188 284 254 284 c 0
 294 284 281 274 280 352 c 0
 280 374 283 377 261 377 c 0
 253 377 199 381 196 374 c 0
29 301 m 0
 29 270 27 281 95 284 c 0
 126 286 121 281 123 295 c 0
 123 297 123 372 119 375 c 0
 116 378 65 373 47 375 c 0
 20 377 29 372 29 301 c 0
196 258 m 0
 195 249 196 187 198 185 c 0
 200 182 282 182 283 182 c 0xde7f
 288 183 285 251 284 258 c 0
 282 279 289 279 261 277 c 0
 199 273 198 291 196 258 c 0
32 203 m 1
 46 211 31 189 54 182 c 0
 62 180 79 190 75 228 c 1
 71 226 71 220 66 219 c 0
 56 217 52 234 54 241 c 0
 55 244 65 256 68 257 c 0
 71 259 79 256 84 257 c 0
 87 257 98 263 99 257 c 1
 99 250 88 251 86 246 c 0
 85 244 87 241 87 239 c 0
 89 184 73 192 69 179 c 1xee7f
 121 179 120 179 122 180 c 0
 125 182 125 197 124 201 c 0
 121 239 127 272 122 276 c 0
 119 278 107 276 103 276 c 0
 102 276 36 277 32 270 c 1
 32 270 29 221 32 203 c 1
68 232 m 1
 70 234 77 242 70 243 c 0
 65 243 67 234 68 232 c 1
32 188 m 1
 31 185 31 181 35 180 c 1
 32 188 l 1
203 176 m 0xde7f
 195 175 199 163 198 156 c 0
 197 148 197 93 199 88 c 0
 202 83 281 86 284 87 c 0
 291 89 287 101 287 106 c 0
 286 177 290 176 279 176 c 0
 220 174 213 178 203 176 c 0xde7f
49 172 m 0xee7f
 33 172 32 174 33 159 c 0
 34 141 32 109 32 97 c 0
 32 79 36 78 57 80 c 0
 73 82 90 80 106 81 c 0
 133 82 124 73 124 120 c 0
 124 126 126 168 122 171 c 0
 118 175 100 172 49 172 c 0xee7f
199 78 m 0
 197 76 199 77 199 50 c 0
 199 18 198 -45 199 -47 c 1
 199 -56 195 -58 223 -56 c 1
 243 -55 265 -60 284 -56 c 0
 289 -55 288 -45 288 -41 c 2
 288 -41 289 75 286 78 c 0
 280 83 202 82 199 78 c 0
89 72 m 1
 85 76 37 74 34 72 c 1
 33 70 30 20 35 20 c 1
 39 21 43 27 45 29 c 0
 53 38 74 53 89 72 c 1
100 72 m 1
 108 66 116 54 126 52 c 1
 127 59 128 67 124 72 c 0
 121 76 102 75 100 72 c 1
77 50 m 2
 42 18 l 2
 23 0 21 3 43 -15 c 0
 72 -38 96 -68 101 -66 c 0
 106 -64 110 -56 114 -52 c 2
 150 -12 l 1
 170 12 167 4 150 19 c 2
 111 54 l 2
 93 72 96 68 77 50 c 2
190 22 m 0
 182 20 175 7 170 1 c 2
 124 -51 l 2
 96 -83 104 -70 121 -88 c 1
 121 -88 185 -149 191 -147 c 0
 193 -146 193 -146 193 -53 c 0
 193 -39 191 -25 193 -12 c 0
 194 0 195 24 190 22 c 0
286 -63 m 1
 283 -61 286 -62 220 -62 c 0
 215 -62 202 -61 199 -65 c 0
 199 -66 197 -104 199 -122 c 0
 201 -140 193 -147 214 -129 c 2
 254 -93 l 2
 264 -85 282 -75 286 -63 c 1
170 -142 m 1
 162 -132 151 -125 141 -117 c 0
 89 -75 114 -63 65 -118 c 0
 30 -157 32 -145 50 -163 c 0
 52 -165 102 -214 109 -212 c 0
 117 -210 128 -185 170 -142 c 1
127 -202 m 1
 134 -202 169 -168 171 -166 c 0
 173 -164 184 -157 182 -152 c 0
 181 -150 177 -146 174 -148 c 1
 174 -148 128 -200 127 -202 c 1
EndSplineSet
EndChar

StartChar: H
Encoding: 72 72 9
Width: 345
Flags: HMW
HStem: -22 6 72 5<249 252> 168 8<63 78> 274 5<244 267> 366 5 368 8 466 5<98 101 98 133> 568 6 673 8
VStem: 50 10 51 6 141 6 146 6 205 8 299 8
LayerCount: 2
Fore
SplineSet
152 436 m 1xf38e
 159 439 163 448 169 453 c 2
 214 496 l 2
 242 522 231 520 253 502 c 1
 299 462 l 2
 305 458 316 453 317 445 c 1
 317 437 306 434 305 426 c 0
 303 340 307 282 307 282 c 1
 305 -4 310 -17 308 -25 c 0
 307 -27 242 -94 234 -102 c 0
 227 -109 208 -133 206 -119 c 0
 204 -107 205 -120 205 -62 c 0
 205 39 210 -62 206 128 c 0
 204 194 206 261 206 327 c 0
 206 406 207 395 196 407 c 1
 187 415 175 429 163 433 c 0
 162 434 149 435 149 408 c 0
 149 374 152 340 152 306 c 0
 152 252 153 197 154 143 c 0
 156 26 144 44 171 16 c 0
 174 12 187 5 186 -2 c 0
 184 -10 173 -17 168 -22 c 0
 131 -58 121 -79 112 -78 c 0
 104 -77 67 -34 67 -34 c 2
 53 -19 35 -6 36 0 c 0
 37 8 49 10 51 19 c 0xf3ae
 52 27 49 99 50 139 c 0
 52 219 53 139 50 273 c 0xf3c6
 49 281 51 290 51 298 c 2
 51 375 l 2
 51 395 47 387 49 538 c 0
 51 704 35 666 65 703 c 1
 65 703 129 777 138 785 c 0
 150 796 148 777 146 755 c 0xf3ae
 146 750 148 744 148 739 c 2
 148 739 147 638 147 631 c 0xf396
 148 595 149 559 149 523 c 0
 149 505 148 487 148 469 c 0
 148 458 149 446 152 436 c 1xf38e
141 777 m 1xf396
 133 775 125 764 119 758 c 2
 75 706 l 2
 67 696 56 685 58 681 c 0
 59 680 134 676 139 683 c 0
 143 690 140 704 139 712 c 1
 139 734 141 755 141 777 c 1xf396
54 662 m 0
 53 660 54 577 56 575 c 0
 58 572 71 572 75 573 c 0
 86 574 135 573 139 576 c 0
 142 578 141 585 141 588 c 2
 141 656 l 2
 141 676 142 673 120 673 c 2
 73 673 l 2
 59 673 56 679 54 662 c 0
142 472 m 1
 142 472 143 564 139 567 c 0
 134 572 118 566 72 568 c 0
 49 569 56 571 56 494 c 0
 56 466 63 472 85 472 c 0
 91 472 96 471 101 471 c 0
 114 472 129 474 142 472 c 1
217 489 m 0
 198 470 170 450 170 442 c 0
 170 436 209 402 223 389 c 0
 243 371 239 375 257 392 c 0
 269 404 282 416 294 428 c 0
 306 441 320 443 293 461 c 0
 279 471 267 484 253 495 c 0
 235 508 239 512 217 489 c 0
57 442 m 2xfba6
 57 397 l 1
 56 366 47 371 120 371 c 0xfba6
 123 371 139 374 139 368 c 0xf7a6
 139 361 111 366 73 366 c 0
 70 366 60 368 58 366 c 0
 56 363 57 308 57 295 c 0
 56 268 62 279 120 279 c 2
 144 279 l 2
 146 279 143 436 143 458 c 0
 143 469 144 466 122 466 c 0
 54 466 57 477 57 442 c 2xfba6
250 375 m 1
 264 371 295 374 297 376 c 0xf786
 299 377 301 409 298 421 c 1
 290 419 252 382 250 375 c 1
228 375 m 1
 226 377 225 380 223 382 c 0
 211 395 207 380 213 374 c 0
 216 372 225 374 228 375 c 1
212 348 m 0
 212 332 213 316 213 299 c 0
 212 277 211 279 236 279 c 0
 298 279 299 275 299 296 c 0
 299 300 300 362 298 365 c 0
 295 370 276 368 264 368 c 0
 217 368 212 376 212 348 c 0
72 176 m 0
 84 176 101 184 98 200 c 1
 78 192 82 221 82 232 c 1
 81 237 79 244 82 248 c 0
 100 277 110 259 111 258 c 0
 113 252 105 247 106 242 c 0
 107 238 111 235 113 233 c 0
 122 213 97 183 96 177 c 1
 132 176 l 1
 145 177 l 1
 146 185 l 1xf38e
 147 202 l 1xf396
 146 273 l 1xf38e
 124 272 103 272 82 272 c 0
 50 272 60 276 58 218 c 0
 56 172 55 176 72 176 c 0
213 253 m 0
 213 186 213 187 213 187 c 1
 214 169 221 179 299 176 c 1
 299 200 301 226 298 250 c 0
 297 256 302 268 298 272 c 0
 295 275 285 274 281 274 c 0
 208 274 213 278 213 253 c 0
93 242 m 1
 95 243 96 243 98 245 c 0
 106 253 93 260 93 247 c 0
 93 245 93 244 93 242 c 1
94 232 m 0
 88 230 93 209 100 211 c 0
 102 212 104 235 94 232 c 0
213 149 m 0
 212 134 212 117 213 102 c 0
 214 74 203 78 268 78 c 0
 277 78 288 76 297 78 c 0
 302 79 299 78 299 148 c 0
 299 171 301 170 279 170 c 0
 206 170 215 181 213 149 c 0
148 76 m 1
 150 81 148 166 146 168 c 0
 144 171 65 173 60 168 c 0xf3ce
 56 164 57 97 57 97 c 1xf3a6
 58 68 51 77 128 77 c 0
 135 77 141 78 148 76 c 1
214 69 m 0
 208 60 216 69 213 4 c 0
 211 -20 211 -18 233 -17 c 0
 292 -16 300 -25 301 -1 c 1
 301 -1 301 55 300 62 c 0
 299 75 303 71 252 72 c 0
 246 72 218 77 214 69 c 0
58 25 m 1
 73 35 l 1
 98 57 l 1
 113 71 l 1
 110 72 81 71 73 70 c 1
 61 70 51 76 58 25 c 1
120 72 m 1
 122 64 146 43 148 42 c 1
 149 63 l 1
 148 71 l 1
 140 72 l 1
 120 72 l 1
102 52 m 1
 92 44 44 6 45 -2 c 0
 46 -7 82 -42 83 -42 c 0
 115 -71 106 -80 128 -56 c 0
 188 12 188 -13 145 35 c 0
 111 73 120 64 102 52 c 1
213 -114 m 1
 222 -109 230 -97 238 -89 c 0
 249 -77 302 -31 296 -24 c 0
 294 -22 258 -21 230 -22 c 0
 206 -23 213 -30 213 -48 c 0
 213 -115 210 -106 213 -114 c 1
EndSplineSet
EndChar

StartChar: I
Encoding: 73 73 10
Width: 221
Flags: HMW
HStem: 72 8 171 6 272 6 368 6<83 87 83 92>
VStem: 63 6 65 38 158 4
LayerCount: 2
Fore
SplineSet
65 602 m 1xf6
 65 624 106 641 104 629 c 1
 104 622 70 603 98 582 c 0
 100 580 121 575 110 570 c 0
 92 562 66 584 65 602 c 1xf6
94 574 m 1
 95 575 l 1
 93 578 89 581 87 584 c 0
 69 606 88 616 90 623 c 1
 89 623 l 1
 76 619 60 590 94 574 c 1
93 520 m 0
 99 522 109 510 112 507 c 2
 158 467 l 2
 162 464 172 458 172 452 c 0
 173 445 165 443 163 438 c 0
 161 426 165 258 164 226 c 0
 164 205 163 184 162 164 c 1
 164 46 l 2
 165 37 203 3 203 -3 c 0
 203 -7 204 -5 149 -60 c 0
 146 -64 139 -73 134 -74 c 0
 126 -76 119 -65 115 -61 c 2
 69 -16 l 2
 65 -12 52 -5 53 2 c 0
 53 7 59 13 61 18 c 0
 65 30 63 18 63 282 c 0xfa
 63 291 61 300 61 309 c 0
 63 412 71 396 33 428 c 0
 18 441 15 439 37 462 c 0
 53 478 66 497 84 510 c 0
 87 512 89 519 93 520 c 0
81 498 m 2
 44 458 l 2
 27 440 22 449 64 408 c 0
 104 370 93 369 114 392 c 0
 126 406 138 419 149 433 c 0
 168 457 172 442 130 482 c 0
 88 522 96 514 81 498 c 2
154 428 m 1
 122 392 l 1
 109 376 l 1
 140 374 l 1
 154 376 l 1
 156 388 l 1
 155 418 l 1
 154 428 l 1
69 392 m 1
 63 371 79 374 87 374 c 1
 85 381 75 389 69 392 c 1
101 366 m 0
 97 366 102 368 82 368 c 0
 60 368 72 369 68 299 c 0
 66 266 73 283 127 278 c 0
 165 275 157 274 156 321 c 0
 154 369 162 368 144 368 c 2
 119 368 l 1
 101 369 106 367 101 366 c 0
66 264 m 1
 66 264 68 180 69 179 c 0
 72 174 154 177 154 177 c 1
 159 178 158 194 158 198 c 0
 156 259 160 265 157 270 c 0
 155 273 140 272 136 272 c 0
 104 269 67 281 66 264 c 1
109 266 m 0
 116 268 109 254 105 253 c 0
 100 251 102 264 109 266 c 0
104 199 m 1xf6
 89 197 101 217 99 230 c 0
 98 235 90 231 92 237 c 0
 98 251 110 243 110 243 c 2
 112 243 116 245 117 242 c 0
 118 238 106 228 110 213 c 0
 112 207 119 215 120 209 c 0
 120 206 116 204 114 202 c 0
 110 198 107 190 104 199 c 1xf6
69 151 m 0xfa
 71 141 68 90 70 85 c 0
 74 78 154 81 154 81 c 1
 161 83 158 134 157 151 c 0
 155 172 163 170 136 170 c 0
 123 170 108 170 95 171 c 0
 73 172 67 179 69 151 c 0xfa
70 25 m 1
 84 38 l 1
 119 71 l 1
 119 72 l 1
 111 74 105 73 97 72 c 1
 86 72 74 77 70 72 c 0
 68 70 67 41 70 25 c 1
134 72 m 1
 134 72 150 49 156 51 c 0
 158 52 158 70 156 72 c 0
 154 75 138 74 134 72 c 1
115 58 m 0
 101 46 88 31 76 19 c 0
 72 15 62 8 63 2 c 0
 64 -6 81 -16 121 -58 c 0
 135 -74 143 -51 181 -18 c 0
 202 0 192 -1 160 37 c 0
 124 79 129 70 115 58 c 0
130 -58 m 1
 131 -58 l 1
 130 -58 l 1
EndSplineSet
EndChar

StartChar: K
Encoding: 75 75 11
Width: 357
Flags: HMW
HStem: 69 7<85 126> 162 7<107 126 107 126> 224 13 254 7 354 6<61 128> 445 9 546 5<114 116> 641 7<83 83>
VStem: 40 10 44 6 133 5
LayerCount: 2
Fore
SplineSet
44 147 m 2xff60
 44 291 41 506 41 613 c 0
 41 637 38 638 40 641 c 0xffa0
 42 648 49 651 53 657 c 0
 68 677 114 729 124 740 c 0
 126 742 132 751 136 747 c 0
 138 745 138 747 136 666 c 1
 136 666 140 540 138 468 c 0
 138 455 137 441 139 429 c 1
 150 437 158 448 167 458 c 0
 175 467 185 476 194 485 c 0
 214 507 214 510 246 475 c 0
 272 447 292 445 274 431 c 0
 270 428 266 423 263 419 c 2
 216 365 l 2
 211 360 201 353 200 345 c 0
 200 344 200 345 211 321 c 2
 238 258 l 1
 245 239 285 130 307 78 c 0
 336 8 331 15 318 0 c 0
 306 -13 291 -26 281 -40 c 0
 278 -44 270 -60 264 -58 c 0
 256 -56 265 -50 235 12 c 0
 217 50 205 90 190 128 c 0
 186 137 181 145 178 154 c 0
 141 244 149 240 141 248 c 1
 140 241 138 235 138 228 c 0
 138 196 141 164 140 132 c 0
 138 41 139 52 149 42 c 0
 187 4 188 12 167 -9 c 2
 127 -51 l 2
 105 -73 111 -72 91 -52 c 2
 50 -12 l 2
 46 -8 38 -3 36 2 c 0
 34 9 45 9 45 16 c 0
 44 25 44 34 44 44 c 1
 43 50 44 56 44 62 c 2
 44 147 l 2xff60
54 648 m 1
 55 648 122 644 129 648 c 0
 134 651 131 662 131 667 c 0
 130 673 131 679 132 685 c 1
 132 694 131 704 131 714 c 0
 131 732 133 731 131 733 c 0
 128 735 115 719 74 672 c 0
 68 665 57 656 54 648 c 1
83 641 m 1
 45 634 45 660 48 598 c 0
 49 574 44 555 49 552 c 0
 54 549 72 551 72 551 c 1
 90 551 111 548 129 551 c 0
 133 552 131 560 131 562 c 0
 131 574 130 587 131 599 c 1
 131 624 131 636 129 639 c 0
 127 641 83 641 83 641 c 1
49 543 m 0
 46 538 49 533 48 528 c 0
 46 511 46 491 48 473 c 1
 50 457 45 453 58 454 c 0
 86 455 111 448 129 452 c 0
 136 454 131 521 131 523 c 0
 131 525 132 538 130 543 c 0
 128 546 117 546 114 546 c 0
 83 543 53 549 49 543 c 0
200 483 m 0
 188 472 178 459 166 448 c 0
 148 430 151 431 167 418 c 0
 178 408 188 396 200 387 c 0
 218 373 215 375 228 390 c 2
 259 425 l 2
 262 428 271 434 271 440 c 1
 270 445 263 449 260 452 c 0
 249 462 240 475 228 484 c 0
 214 495 218 499 200 483 c 0
50 445 m 0
 48 442 48 365 50 362 c 0xff60
 52 359 67 360 71 360 c 0
 90 361 109 357 128 360 c 0
 136 361 132 374 132 379 c 0
 131 438 134 441 131 445 c 0
 128 449 115 448 111 448 c 0
 109 448 53 451 50 445 c 0
140 290 m 1
 147 294 171 328 191 348 c 0
 212 370 215 368 198 382 c 2
 161 414 l 2
 158 417 151 426 146 424 c 1
 137 423 137 423 138 348 c 0
 138 341 139 335 138 329 c 1
 138 317 134 301 140 290 c 1
62 354 m 0
 60 354 52 355 50 353 c 0xff60
 48 351 48 353 50 280 c 0xffa0
 50 275 48 264 52 261 c 0
 56 258 74 260 74 261 c 0
 81 265 81 278 92 278 c 0
 97 278 100 273 100 268 c 1
 99 266 98 264 100 262 c 1
 101 263 116 259 129 261 c 0
 132 262 133 261 133 306 c 0
 133 352 133 350 131 352 c 0
 127 356 74 354 62 354 c 0
194 338 m 1
 187 336 183 328 179 324 c 0
 132 267 134 286 149 249 c 2
 171 198 l 1
 193 142 211 84 237 28 c 0
 245 11 252 -5 259 -23 c 0
 262 -32 266 -50 274 -39 c 0
 305 1 319 9 321 17 c 0
 323 28 285 111 277 132 c 2
 229 257 l 1
 194 338 l 1
89 267 m 1
 87 262 88 260 90 260 c 0
 91 260 94 263 89 267 c 1
86 238 m 1
 88 238 91 238 93 239 c 0
 105 241 96 224 98 220 c 0
 100 216 109 219 106 211 c 0
 102 200 91 210 87 204 c 0
 84 199 93 193 91 188 c 0
 88 183 72 179 69 185 c 0
 67 190 74 201 74 206 c 2
 74 206 75 247 73 254 c 1
 68 253 54 257 51 253 c 0
 48 249 50 240 50 235 c 0xffa0
 50 219 48 205 49 188 c 1
 49 167 48 166 71 170 c 0
 84 172 100 169 114 169 c 0
 138 169 132 162 133 208 c 1
 133 257 138 255 122 254 c 0
 115 254 104 257 98 253 c 0
 95 251 93 244 90 243 c 0
 85 241 90 252 88 254 c 1
 88 254 81 255 86 238 c 1
84 226 m 1
 86 219 l 1
 88 219 l 1
 91 226 l 1
 84 226 l 1
50 141 m 0xff60
 53 111 48 85 52 78 c 0
 53 77 84 76 108 76 c 0
 145 76 130 68 133 141 c 0
 134 160 136 162 117 162 c 0
 52 162 46 173 50 141 c 0xff60
52 20 m 1
 58 22 61 28 66 32 c 0
 84 48 106 64 104 68 c 0
 102 71 94 69 92 69 c 0
 79 69 58 74 52 68 c 0
 49 65 48 31 52 20 c 1
128 70 m 0
 119 68 126 59 131 61 c 1
 135 61 134 71 128 70 c 0
141 40 m 2
 103 78 120 70 60 18 c 1
 44 6 41 4 55 -9 c 0
 68 -21 81 -36 100 -52 c 0
 110 -61 108 -63 124 -46 c 1
 135 -33 148 -21 159 -9 c 0
 168 3 177 5 164 18 c 2
 141 40 l 2
EndSplineSet
EndChar

StartChar: L
Encoding: 76 76 12
Width: 230
Flags: HMW
HStem: 72 7 272 6 372 6 481 6 577 7 677 7
VStem: 36 12 48 6<100 128> 90 12 139 8 146 7<401 410> 152 5 192 10<1 6>
LayerCount: 2
Fore
SplineSet
146 800 m 0xffa8
 151 802 150 792 150 789 c 0
 148 776 146 763 146 749 c 0xffa8
 146 731 148 715 148 697 c 0xffc8
 148 687 146 676 147 666 c 0
 151 561 152 410 152 410 c 2xffa8
 152 396 154 382 155 368 c 0
 157 334 156 213 157 195 c 0xff98
 159 38 157 51 168 39 c 0
 175 31 182 23 190 16 c 0
 193 13 202 9 202 4 c 0
 202 -5 180 -17 126 -67 c 0
 114 -78 117 -79 105 -66 c 1
 52 -16 l 1
 23 9 48 -8 48 22 c 0
 48 232 36 675 36 675 c 1
 40 689 58 703 67 713 c 1
 86 731 102 754 121 772 c 0
 148 799 141 798 146 800 c 0xffa8
140 785 m 1
 112 752 76 711 68 703 c 0
 62 696 54 693 52 684 c 1
 53 683 100 681 119 683 c 0
 141 685 140 666 139 722 c 0
 139 727 138 733 138 738 c 0
 138 745 139 750 139 756 c 0xffc8
 139 784 144 780 140 785 c 1
44 674 m 1
 42 666 44 658 44 651 c 0
 45 629 44 591 48 586 c 0
 51 582 138 583 138 583 c 1
 146 585 139 620 140 653 c 0
 141 683 148 677 72 677 c 0
 66 677 47 681 44 674 c 1
48 576 m 0
 45 573 48 555 48 555 c 1
 47 487 48 489 50 487 c 0
 52 485 139 485 141 485 c 0
 147 487 143 501 143 505 c 0
 141 523 143 572 141 576 c 0
 139 579 130 577 127 577 c 0
 109 579 51 578 48 576 c 0
95 378 m 0
 151 378 145 371 146 401 c 0xffa8
 146 402 145 473 142 477 c 0
 140 481 90 482 82 481 c 0
 37 476 50 498 48 400 c 0
 48 372 46 378 95 378 c 0
49 353 m 0
 49 335 50 319 50 302 c 0
 50 269 48 280 119 278 c 0
 147 276 149 273 148 298 c 0xffc8
 147 369 146 367 144 369 c 0
 141 373 122 371 98 372 c 0
 47 374 49 376 49 353 c 0
115 271 m 1
 127 241 102 247 101 234 c 0
 100 231 102 228 102 226 c 0
 102 221 98 212 100 209 c 0
 102 206 127 198 100 190 c 0
 97 189 82 199 83 202 c 0
 84 206 89 207 90 212 c 0
 92 225 87 240 91 254 c 0
 92 258 102 267 100 271 c 0
 99 273 91 272 89 272 c 0
 56 272 50 280 52 261 c 0
 55 222 49 186 54 180 c 0
 57 176 146 175 149 178 c 0
 150 180 152 268 146 271 c 0xffa8
 142 274 118 273 115 271 c 1
102 258 m 0
 99 256 95 244 102 247 c 0
 105 248 108 252 108 255 c 0
 108 257 104 259 102 258 c 0
53 170 m 1
 52 163 51 109 53 100 c 0
 56 72 44 78 109 78 c 0
 115 78 121 80 126 79 c 0
 134 78 143 71 150 79 c 0
 153 82 151 151 151 151 c 2
 151 178 160 170 53 170 c 1
111 71 m 1
 99 74 57 74 55 72 c 0
 54 71 52 24 57 21 c 1
 61 19 69 29 72 31 c 1
 77 35 109 62 111 71 c 1
142 72 m 0
 132 70 146 58 150 59 c 0
 152 59 152 65 152 66 c 0xff98
 151 71 146 73 142 72 c 0
106 53 m 0
 86 35 48 6 48 0 c 1
 47 -5 96 -48 101 -53 c 0
 120 -71 122 -62 136 -49 c 2
 176 -13 l 2
 180 -10 192 -2 192 3 c 0
 192 9 181 16 178 19 c 2
 140 58 l 2
 120 78 118 65 106 53 c 0
EndSplineSet
EndChar

StartChar: M
Encoding: 77 77 13
Width: 555
Flags: HMW
HStem: 73 4<413 418> 171 6<86 96 77 128> 272 7<303 314> 370 10
VStem: 63 7 160 6 226 8 325 6 390 8 489 8
LayerCount: 2
Fore
SplineSet
243 515 m 1
 264 534 258 539 280 516 c 2
 325 469 l 2
 328 466 341 457 342 452 c 1
 342 445 333 450 332 432 c 0
 330 412 334 292 333 280 c 0
 332 208 331 134 331 62 c 0
 331 36 376 17 375 6 c 0
 374 -1 362 -9 357 -13 c 2
 319 -51 l 2
 298 -72 298 -78 277 -57 c 0
 254 -33 218 0 218 7 c 0
 218 12 226 13 226 19 c 0
 228 77 227 398 227 398 c 1
 226 410 218 414 210 422 c 0
 205 427 200 434 195 438 c 0
 179 450 171 444 199 472 c 0
 213 486 227 502 243 515 c 1
417 531 m 0
 426 534 450 499 483 472 c 0
 486 469 500 461 500 456 c 0
 500 451 495 448 494 442 c 1
 494 424 496 407 496 389 c 0
 496 370 495 350 495 331 c 0
 495 296 496 261 496 225 c 0
 494 11 485 58 525 15 c 0
 527 12 535 9 535 4 c 0
 535 -4 524 -9 520 -14 c 0
 508 -29 494 -43 481 -56 c 0
 472 -65 466 -85 444 -60 c 1
 428 -43 409 -30 395 -12 c 0
 391 -8 379 -1 378 5 c 0
 378 10 387 14 389 17 c 1
 392 25 389 43 390 80 c 0
 390 101 392 80 390 185 c 0
 386 321 392 402 392 402 c 1
 391 406 355 440 355 440 c 1
 336 458 343 455 361 473 c 0
 371 483 399 507 412 525 c 0
 414 527 415 530 417 531 c 0
69 403 m 1
 67 407 34 436 34 436 c 1
 11 454 21 446 50 482 c 0
 105 550 78 536 150 478 c 0
 158 472 171 465 175 456 c 0
 178 448 167 443 167 435 c 0
 167 417 169 400 170 383 c 1
 170 383 166 95 166 76 c 0
 165 47 159 47 196 13 c 0
 209 1 210 1 191 -17 c 0
 176 -31 162 -48 144 -60 c 0
 140 -62 132 -74 126 -73 c 0
 118 -71 72 -24 66 -17 c 0
 62 -13 52 -6 50 0 c 0
 48 7 60 13 62 19 c 0
 66 32 61 112 64 276 c 0
 65 291 63 305 63 319 c 0
 63 337 66 354 65 372 c 0
 64 379 61 401 69 403 c 1
244 507 m 1
 207 471 l 2
 203 467 191 458 191 452 c 0
 191 449 198 440 246 401 c 0
 250 398 260 386 265 388 c 0
 271 391 311 431 316 437 c 0
 338 458 333 450 316 468 c 0
 304 481 291 496 277 508 c 0
 258 526 265 525 244 507 c 1
405 508 m 1
 392 497 379 482 367 470 c 0
 345 449 349 459 385 421 c 0
 427 378 422 379 442 401 c 0
 504 473 502 438 460 483 c 0
 415 530 422 523 405 508 c 1
77 502 m 0
 57 480 32 456 33 448 c 1
 35 441 80 404 92 393 c 0
 95 390 99 384 105 386 c 0
 113 388 136 421 154 436 c 0
 177 456 168 453 158 462 c 2
 130 488 l 2
 92 520 97 525 77 502 c 0
487 437 m 1
 480 436 476 428 472 424 c 0
 441 392 432 386 431 378 c 1
 444 375 461 378 475 378 c 0
 495 378 489 375 487 437 c 1
267 380 m 1
 276 378 286 379 295 379 c 0
 305 379 321 377 325 380 c 0
 326 382 328 424 324 433 c 1
 318 431 314 425 310 422 c 2
 281 396 l 2
 277 392 269 387 267 380 c 1
110 381 m 1
 113 378 158 378 160 381 c 0
 161 382 167 431 160 431 c 0
 157 431 152 425 150 423 c 2
 110 381 l 1
70 402 m 1
 70 375 68 376 96 380 c 1
 92 388 79 399 70 402 c 1
255 380 m 1
 253 386 247 392 243 396 c 0
 233 407 232 383 235 380 c 0
 240 376 249 379 255 380 c 1
398 398 m 1
 397 395 396 382 398 380 c 0
 400 378 413 378 416 379 c 1
 416 380 l 1
 398 398 l 1
71 371 m 0
 69 368 70 353 70 348 c 0
 76 282 54 277 95 280 c 0
 116 282 155 274 160 282 c 0
 162 285 163 368 160 372 c 0
 158 374 75 376 71 371 c 0
234 370 m 1
 232 364 233 355 234 349 c 0
 236 278 224 276 258 278 c 1
 279 280 299 276 320 278 c 0
 327 278 326 292 325 297 c 0
 324 307 329 367 325 372 c 0
 323 374 309 372 305 372 c 0
 255 374 237 374 234 370 c 1
456 278 m 0
 465 278 476 276 484 278 c 0
 495 280 485 315 489 347 c 0
 490 353 491 366 488 370 c 0
 486 373 404 372 404 372 c 1
 392 370 397 333 396 300 c 0
 395 268 390 278 456 278 c 0
92 177 m 0
 100 177 107 178 115 178 c 0
 127 177 144 174 156 177 c 0
 164 179 159 230 161 250 c 0
 162 256 164 267 160 272 c 0
 158 275 119 275 93 273 c 0
 68 272 71 277 70 252 c 0
 68 173 62 177 92 177 c 0
235 254 m 0
 234 178 233 181 235 178 c 0
 237 176 257 176 257 176 c 1
 315 182 328 161 325 196 c 0
 323 215 327 234 326 252 c 0
 324 279 325 272 303 272 c 0
 234 271 235 278 235 254 c 0
489 98 m 2
 489 242 l 2
 489 276 488 272 467 272 c 0
 458 272 402 275 398 269 c 0
 398 268 395 183 398 178 c 0
 403 172 483 182 485 173 c 0
 486 168 476 171 465 171 c 0
 448 171 433 172 417 172 c 0
 398 172 394 172 397 148 c 0
 399 131 395 115 395 97 c 0
 396 71 403 78 422 78 c 0
 490 78 489 69 489 98 c 2
99 228 m 1
 105 230 103 245 111 245 c 0
 118 245 114 227 120 228 c 0
 127 229 125 244 132 243 c 0
 145 242 136 232 140 224 c 0
 142 221 149 217 148 212 c 0
 147 209 139 198 135 201 c 0
 131 205 137 212 127 224 c 1
 117 206 128 211 120 203 c 0
 105 185 112 220 106 223 c 0
 98 227 101 198 90 200 c 0
 79 202 90 218 85 228 c 0
 83 231 76 230 78 234 c 1
 79 239 91 247 95 243 c 0
 98 240 98 232 99 228 c 1
88 171 m 0
 84 171 75 172 71 169 c 0
 66 165 67 83 71 80 c 0
 74 77 154 73 160 80 c 0
 162 82 160 80 160 149 c 0
 160 177 169 171 88 171 c 0
250 170 m 2
 232 170 232 167 233 148 c 0
 235 125 230 83 235 78 c 0
 238 76 245 79 248 78 c 0
 297 75 291 82 296 81 c 0
 298 81 306 75 322 77 c 0
 326 78 327 86 325 125 c 0
 323 167 332 170 314 170 c 2
 250 170 l 2
446 72 m 1
 436 75 423 73 412 73 c 0
 392 73 397 72 396 38 c 0
 395 18 409 35 412 37 c 0
 424 47 440 58 446 72 c 1
70 26 m 1
 84 30 96 47 107 56 c 0
 112 60 119 64 120 71 c 1
 105 73 74 73 72 71 c 0
 68 69 66 36 70 26 c 1
488 53 m 1
 488 57 490 67 487 71 c 0
 485 73 471 74 469 71 c 0
 467 68 483 55 488 53 c 1
139 72 m 1
 141 64 157 52 159 53 c 0
 163 55 162 69 159 71 c 0
 154 74 144 72 139 72 c 1
234 25 m 1
 242 28 270 57 270 57 c 1
 286 72 282 71 270 71 c 0
 235 71 237 72 235 70 c 0
 232 66 234 25 234 25 c 1
280 58 m 0
 267 46 255 35 243 23 c 0
 218 -1 229 5 280 -50 c 0
 283 -54 292 -64 298 -62 c 0
 306 -59 332 -28 350 -12 c 0
 354 -8 365 -1 365 6 c 0
 365 11 316 57 314 59 c 0
 295 77 297 73 280 58 c 0
313 70 m 0
 310 68 321 56 325 59 c 0
 332 64 319 76 313 70 c 0
436 52 m 0
 385 4 378 10 405 -13 c 0
 470 -69 453 -75 480 -47 c 0
 502 -23 527 -3 525 5 c 0
 523 13 478 50 474 54 c 0
 453 75 456 70 436 52 c 0
111 52 m 1
 46 -6 46 8 94 -36 c 0
 132 -70 120 -75 143 -52 c 0
 155 -40 170 -27 182 -15 c 0
 199 1 210 -6 165 36 c 0
 132 67 139 74 111 52 c 1
EndSplineSet
EndChar

StartChar: N
Encoding: 78 78 14
Width: 403
Flags: HMW
HStem: 76 7<81 130> 171 6 272 6<99 108> 369 6
VStem: 70 6 232 8 331 7
LayerCount: 2
Fore
SplineSet
243 512 m 2
 271 537 263 531 283 513 c 1
 332 465 l 2
 336 460 347 455 347 448 c 0
 348 437 338 445 338 421 c 0
 340 214 338 220 338 214 c 0
 344 42 331 58 349 40 c 2
 373 15 l 2
 375 13 383 6 383 3 c 0
 384 -4 371 -10 368 -14 c 0
 355 -29 339 -44 325 -58 c 0
 308 -75 313 -84 287 -58 c 0
 260 -31 218 -5 218 4 c 0
 218 12 229 16 232 21 c 0
 237 28 233 394 231 398 c 0
 227 406 188 441 180 442 c 0
 167 444 171 393 172 363 c 1
 172 250 l 1
 178 22 162 57 200 24 c 0
 203 21 217 14 217 8 c 1
 215 -1 216 9 158 -58 c 0
 141 -76 143 -87 120 -61 c 0
 60 3 60 -7 59 2 c 0
 58 8 69 12 70 19 c 0
 72 33 68 340 66 392 c 0
 65 409 70 407 31 440 c 0
 24 445 21 448 21 450 c 0
 21 454 40 474 48 482 c 0
 92 526 84 527 91 528 c 0
 100 530 174 455 182 456 c 0
 184 456 186 459 188 461 c 2
 203 475 l 1
 243 512 l 2
245 502 m 0
 233 490 220 478 206 467 c 0
 182 448 186 450 206 433 c 0
 221 421 235 405 248 392 c 0
 270 371 268 379 286 397 c 0
 338 450 351 442 319 467 c 0
 306 478 295 493 282 505 c 0
 262 524 266 522 245 502 c 0
80 505 m 0
 67 493 55 479 44 466 c 0
 25 443 28 456 67 417 c 0
 109 375 101 383 118 398 c 2
 157 435 l 2
 182 458 174 448 111 505 c 0
 88 526 92 516 80 505 c 0
110 378 m 1
 114 377 161 375 164 378 c 1
 164 378 168 415 163 430 c 1
 161 429 112 386 110 378 c 1
278 378 m 1
 290 374 306 375 318 375 c 0
 321 375 328 375 330 377 c 0
 332 380 332 424 331 428 c 1
 329 427 285 395 278 378 c 1
74 399 m 0
 69 397 71 382 73 379 c 0
 75 374 89 376 93 378 c 0
 99 381 78 401 74 399 c 0
240 389 m 0
 233 385 245 372 252 378 c 0
 255 380 243 391 240 389 c 0
76 370 m 0
 72 366 74 282 76 280 c 0
 80 276 94 277 99 278 c 0
 117 280 138 276 156 278 c 0
 176 280 163 283 167 347 c 0
 169 374 162 369 150 369 c 0
 109 371 78 372 76 370 c 0
242 369 m 1
 237 367 239 353 239 349 c 0
 242 284 236 289 241 281 c 0
 243 277 296 278 301 278 c 0
 328 276 331 274 331 298 c 0
 331 349 334 364 331 367 c 0
 327 370 242 369 242 369 c 1
87 272 m 0
 84 272 78 273 76 271 c 0
 76 270 74 182 77 178 c 0
 80 175 94 177 98 177 c 0
 181 177 169 153 167 251 c 0
 167 256 169 266 166 271 c 0
 164 273 155 272 152 272 c 0
 90 272 129 272 87 272 c 0
240 254 m 0
 242 236 239 184 242 179 c 0
 248 171 295 176 305 176 c 0
 313 176 322 173 330 176 c 0
 337 178 329 232 331 246 c 0
 332 251 333 266 330 270 c 0
 327 274 315 272 310 272 c 2
 268 272 l 2
 254 272 237 279 240 254 c 0
120 225 m 1
 116 221 110 208 105 207 c 0
 89 204 101 222 99 228 c 0
 98 234 85 234 99 244 c 0
 116 256 105 213 117 232 c 1
 119 236 121 244 125 246 c 0
 137 249 132 227 134 222 c 0
 136 216 146 216 135 208 c 0
 122 198 122 217 120 225 c 1
98 82 m 0
 173 82 168 72 168 102 c 0
 168 168 169 166 166 168 c 0
 164 170 79 171 79 171 c 1
 73 169 77 156 77 151 c 0
 80 81 66 82 98 82 c 0
332 83 m 1
 334 103 332 123 332 143 c 0
 332 150 334 161 331 167 c 0
 327 173 277 166 262 168 c 0
 239 171 240 170 241 148 c 0
 243 109 236 88 244 84 c 0
 250 81 262 83 269 83 c 2
 332 83 l 1
298 76 m 1
 296 77 244 80 241 73 c 1
 241 73 237 31 243 30 c 0
 249 29 281 64 298 76 c 1
130 76 m 1
 123 78 79 77 79 76 c 0
 75 74 76 36 76 36 c 1
 77 21 79 23 92 36 c 0
 104 48 128 68 130 76 c 1
308 76 m 1
 310 71 329 57 331 59 c 1
 334 61 334 75 331 77 c 0
 326 79 313 78 308 76 c 1
150 70 m 0
 152 68 164 56 167 58 c 0
 169 60 168 71 166 73 c 1
 164 75 142 79 150 70 c 0
122 58 m 0
 110 48 68 10 70 2 c 0
 71 -4 120 -50 122 -52 c 0
 144 -73 137 -70 154 -52 c 2
 191 -11 l 2
 210 11 213 2 173 39 c 0
 133 76 144 79 122 58 c 0
283 53 m 0
 249 23 228 11 229 5 c 0
 231 -1 263 -26 298 -58 c 0
 312 -72 312 -60 324 -48 c 0
 378 11 390 -6 335 42 c 0
 297 75 305 72 283 53 c 0
EndSplineSet
EndChar

StartChar: O
Encoding: 79 79 15
Width: 354
Flags: HMW
HStem: 75 5 76 2<138 138> 170 9 272 5 274 7 376 9
VStem: 40 8 61 14 141 6 208 5 307 4
LayerCount: 2
Fore
SplineSet
185 513 m 1x27e0
 232 533 205 540 297 480 c 0
 321 464 313 475 312 393 c 0
 311 357 311 108 311 108 c 2
 311 86 312 64 312 42 c 0
 312 13 326 16 265 -7 c 0
 262 -9 140 -71 132 -72 c 0
 118 -74 89 -39 61 -20 c 0
 39 -5 41 -10 42 41 c 0
 42 63 40 84 40 105 c 2
 40 105 43 258 39 426 c 0
 38 444 34 452 57 461 c 0
 73 467 126 489 126 489 c 1
 185 513 l 1x27e0
212 502 m 0
 193 474 173 445 175 440 c 0
 177 434 206 416 223 406 c 2
 247 390 l 2
 257 384 257 383 264 394 c 0
 301 455 306 461 306 465 c 1
 305 467 305 466 242 509 c 0
 220 524 225 521 212 502 c 0
214 517 m 1
 208 519 202 514 197 511 c 0
 173 499 148 496 147 487 c 0
 146 485 146 459 148 456 c 0
 149 455 164 443 168 445 c 0
 170 446 212 509 214 517 c 1
118 477 m 1
 120 471 138 461 140 463 c 0
 142 465 142 485 138 486 c 0
 133 488 122 479 118 477 c 1
62 455 m 0
 49 449 43 455 47 393 c 0
 48 382 49 385 67 385 c 0
 125 383 137 389 135 382 c 1
 134 374 54 382 48 376 c 0
 46 374 45 285 49 282 c 0
 55 279 136 280 137 281 c 0x2fe0
 144 283 139 303 139 414 c 0
 139 443 147 447 132 458 c 0
 110 476 118 480 62 455 c 0
147 348 m 0
 145 253 145 157 148 62 c 0
 148 53 153 47 160 42 c 0
 162 40 202 6 207 8 c 0
 211 10 208 17 208 33 c 0
 208 52 209 72 207 91 c 0
 205 119 207 181 207 181 c 1
 206 221 204 261 204 302 c 1
 204 302 207 403 202 412 c 0
 199 418 182 424 170 434 c 0
 132 463 149 442 147 348 c 0
305 445 m 1
 300 443 295 435 293 430 c 0
 277 402 264 388 267 382 c 0
 270 375 303 384 301 376 c 0
 300 371 213 378 211 372 c 0
 209 368 210 284 213 280 c 0
 215 278 265 278 265 278 c 2x37e0
 270 278 276 280 282 280 c 0
 285 280 297 277 302 280 c 0
 307 284 303 310 303 318 c 0
 305 349 307 379 307 409 c 1
 307 409 306 443 305 445 c 1
210 406 m 1
 208 402 206 382 211 379 c 0
 213 378 221 380 224 381 c 1
 228 381 253 379 238 388 c 2
 222 398 l 2
 218 400 215 404 210 406 c 1
117 274 m 0x2fe0
 41 272 47 286 47 254 c 0
 47 241 46 185 48 182 c 0
 50 178 104 178 118 179 c 1
 142 179 141 175 141 200 c 0
 141 218 140 234 140 252 c 0
 140 257 142 268 138 272 c 0x37e0
 135 276 122 274 117 274 c 0x2fe0
236 272 m 0
 230 273 219 275 214 272 c 0
 210 270 209 181 214 177 c 1
 214 177 295 174 302 176 c 0
 307 177 306 203 305 213 c 0
 302 255 308 264 302 271 c 0
 296 277 256 270 236 272 c 0
77 247 m 0
 84 250 93 238 94 232 c 0
 96 220 77 201 75 200 c 0
 68 198 62 210 61 215 c 0
 59 227 77 246 77 247 c 0
76 232 m 0
 68 230 70 213 78 216 c 0
 86 218 84 234 76 232 c 0
125 72 m 1
 127 68 138 61 140 61 c 0
 146 61 142 82 142 86 c 0
 142 170 142 168 140 170 c 0
 137 175 50 174 48 171 c 0
 46 169 46 84 49 82 c 0
 52 79 134 82 137 78 c 0
 138 77 138 77 138 76 c 0x67e0
 136 74 125 72 125 72 c 1
212 151 m 0
 212 134 210 118 212 100 c 0
 214 78 196 80 285 80 c 0xa7e0
 310 80 307 76 307 108 c 0
 307 166 307 164 304 168 c 0
 302 171 304 170 235 170 c 0
 213 170 212 173 212 151 c 0
213 68 m 0
 213 60 212 54 213 47 c 0
 215 26 206 -3 231 -14 c 0
 239 -18 302 18 302 18 c 1
 310 25 307 70 305 72 c 0
 297 78 265 73 237 75 c 0
 210 77 214 76 213 68 c 0
50 4 m 1
 58 7 62 16 67 22 c 0
 85 44 108 64 110 72 c 1
 100 74 52 75 50 73 c 0
 42 68 48 8 50 4 c 1
174 24 m 0
 101 82 133 83 68 14 c 0
 45 -11 47 -3 109 -52 c 0
 132 -71 129 -61 143 -46 c 0
 188 5 191 8 190 11 c 0
 188 17 178 21 174 24 c 0
138 -60 m 1
 145 -62 151 -56 157 -54 c 0
 176 -45 206 -32 209 -26 c 0
 213 -18 208 6 196 4 c 0
 189 2 182 -11 177 -15 c 1
 177 -15 142 -52 138 -60 c 1
216 -9 m 1
 215 -11 214 -21 217 -23 c 0
 220 -24 233 -18 216 -9 c 1
EndSplineSet
EndChar

StartChar: P
Encoding: 80 80 16
Width: 351
Flags: HMW
HStem: -222 7 -124 6 -68 5 -25 7<117 124> 32 6<69 105 69 117> 72 5 76 4 171 8<68 68> 172 5 272 6 371 6
VStem: 42 7 138 5 202 6 303 5
LayerCount: 2
Fore
SplineSet
214 513 m 1xf87e
 231 529 229 534 252 514 c 1
 300 470 l 2
 304 465 317 460 318 453 c 0
 319 447 305 443 303 436 c 0
 302 432 305 426 305 422 c 0
 304 410 303 400 303 388 c 0
 303 351 307 315 308 278 c 0
 309 225 308 134 312 42 c 0
 314 22 310 37 255 -20 c 0
 207 -69 214 -71 187 -69 c 0
 141 -64 148 -72 147 -82 c 1
 147 -184 l 1
 148 -221 155 -214 140 -225 c 0
 128 -233 101 -265 83 -280 c 0
 55 -304 55 -318 46 -317 c 0
 37 -317 44 -296 42 -283 c 0
 41 -275 42 -267 42 -258 c 0
 40 -172 44 -188 42 -172 c 0
 42 -169 41 -165 43 -163 c 0
 55 -156 44 -209 51 -214 c 0
 57 -218 82 -213 120 -215 c 0
 125 -215 139 -218 141 -211 c 0
 143 -205 139 -176 141 -149 c 0
 143 -118 139 -126 118 -125 c 2
 118 -125 53 -124 51 -124 c 1
 43 -127 54 -164 44 -159 c 0
 37 -157 44 -75 41 -70 c 0
 40 -69 7 -68 7 -68 c 2
 -2 -68 -9 -69 -3 -57 c 0
 7 -35 41 33 42 42 c 0
 43 86 42 131 41 175 c 0
 40 205 42 235 42 265 c 0
 42 305 39 402 39 402 c 1
 40 414 46 406 34 418 c 0
 -11 461 -15 447 25 479 c 0
 93 534 52 543 132 477 c 0
 158 455 151 459 170 476 c 2
 214 513 l 1xf87e
217 508 m 0
 204 497 189 484 177 472 c 0
 173 469 162 464 163 457 c 0
 164 451 198 420 229 389 c 0
 244 374 243 386 255 398 c 2
 296 438 l 2
 299 442 309 450 307 455 c 0
 305 459 290 469 267 490 c 1
 225 530 233 521 217 508 c 0
22 471 m 0
 18 468 7 459 7 453 c 0
 8 446 50 410 60 402 c 0
 76 390 73 381 100 408 c 2
 130 438 l 1
 158 466 135 459 92 505 c 0
 72 527 81 519 22 471 c 0
145 62 m 2
 145 56 144 44 146 40 c 0
 147 38 187 35 199 37 c 0
 205 39 203 47 201 96 c 0
 200 105 203 174 202 194 c 0
 198 410 198 408 197 410 c 0
 196 414 161 454 154 452 c 0
 144 450 144 448 143 389 c 0
 143 387 145 308 145 267 c 2
 145 62 l 2
47 406 m 1
 45 400 43 384 50 380 c 0
 55 377 64 380 69 380 c 0
 83 381 115 376 128 378 c 0
 144 380 137 376 137 434 c 1
 131 432 127 426 122 423 c 2
 92 397 l 2
 88 394 82 382 76 383 c 0
 70 383 59 404 47 406 c 1
282 418 m 0
 273 410 265 401 256 392 c 0
 238 374 253 376 286 377 c 0
 288 377 297 376 292 372 c 0
 289 370 281 371 277 371 c 0
 267 371 257 372 246 372 c 0
 243 372 237 370 234 370 c 1
 228 372 211 377 207 370 c 0
 205 368 203 284 208 279 c 0
 212 275 222 278 228 278 c 0
 246 276 265 276 283 278 c 0
 291 279 301 274 300 287 c 0
 299 295 298 411 297 420 c 0
 295 434 287 422 282 418 c 0
205 380 m 0
 207 377 228 379 228 379 c 1
 232 382 212 398 211 399 c 0
 199 410 203 384 205 380 c 0
46 354 m 0
 44 337 48 321 47 304 c 0
 47 299 44 287 47 282 c 0
 50 278 65 279 69 280 c 0
 91 282 112 275 133 278 c 0
 144 280 136 311 138 349 c 0
 140 387 140 368 69 373 c 0
 44 375 48 379 46 354 c 0
47 256 m 0
 47 184 48 179 50 178 c 0
 54 176 65 176 68 179 c 0xf97e
 70 181 74 222 69 232 c 0
 65 240 54 220 52 228 c 0
 51 230 52 229 70 250 c 0
 82 263 77 243 82 243 c 0
 88 242 89 253 95 252 c 0
 99 251 116 227 97 212 c 0
 94 210 85 212 83 208 c 0
 81 202 82 192 82 185 c 0
 81 177 83 177 123 177 c 0xf8fe
 145 177 138 184 138 200 c 0
 136 278 149 272 117 272 c 0
 43 272 47 285 47 256 c 0
207 270 m 0
 205 268 207 200 207 199 c 0
 209 170 202 179 277 179 c 0
 285 179 290 177 297 178 c 0
 306 180 303 192 302 199 c 0
 300 215 303 262 298 269 c 0
 296 271 210 275 207 270 c 0
87 237 m 0
 79 235 78 216 88 218 c 0
 100 221 95 239 87 237 c 0
93 172 m 0xfafe
 91 172 84 173 82 172 c 0xfafe
 77 170 76 161 70 159 c 0
 65 157 69 169 68 171 c 0xf97e
 66 174 54 174 51 172 c 0
 46 169 48 153 48 148 c 2
 48 80 l 1
 107 82 133 77 137 82 c 0
 140 85 139 98 139 102 c 2
 139 152 l 2
 139 176 143 172 93 172 c 0xfafe
210 171 m 0xfd7e
 206 166 207 154 207 148 c 0
 209 83 194 73 236 78 c 0
 255 80 276 74 295 77 c 0
 310 79 303 76 303 148 c 0
 303 154 305 164 301 170 c 0
 299 172 214 176 210 171 c 0xfd7e
49 77 m 1
 47 69 48 56 48 48 c 0
 48 46 47 40 49 38 c 0
 52 35 69 38 69 38 c 1
 141 38 140 48 140 48 c 1
 140 79 147 76 95 76 c 0xfa7e
 80 76 63 75 49 77 c 1
216 72 m 1xfc7e
 204 71 208 59 207 50 c 1
 207 35 205 35 236 36 c 0
 289 38 290 33 302 37 c 0
 305 38 309 69 301 71 c 0
 300 72 216 72 216 72 c 1xfc7e
192 31 m 0
 190 31 151 37 147 29 c 0
 145 25 146 15 146 10 c 0
 146 -62 146 -60 148 -62 c 0
 149 -63 177 -66 198 -63 c 0
 204 -61 202 -60 202 -22 c 0
 202 30 207 31 192 31 c 0
55 32 m 0
 43 30 47 5 48 -3 c 0
 48 -4 46 -14 49 -17 c 0
 54 -21 66 -18 72 -18 c 0
 98 -18 128 -20 137 -18 c 0
 142 -16 140 -12 140 -8 c 0
 138 17 141 28 137 30 c 0
 133 33 122 32 117 32 c 0
 97 32 74 34 55 32 c 0
212 31 m 0
 204 29 208 21 207 15 c 0
 206 8 205 -56 212 -55 c 0
 218 -54 226 -42 230 -38 c 2
 276 8 l 2
 282 14 294 23 292 29 c 0
 290 31 214 31 212 31 c 0
40 21 m 1
 1 -62 l 1
 10 -64 22 -62 32 -62 c 0
 47 -62 41 -62 42 -38 c 0
 42 -30 43 -23 43 -15 c 0
 43 -3 41 9 41 21 c 1
 40 21 l 1
48 -32 m 0
 48 -73 43 -62 113 -62 c 0
 121 -62 129 -64 137 -62 c 0
 145 -60 141 -33 140 -32 c 0
 138 -20 132 -25 117 -25 c 0
 50 -23 48 -18 48 -32 c 0
49 -71 m 1
 49 -71 46 -114 50 -117 c 0
 55 -121 67 -118 73 -118 c 0
 134 -118 143 -127 141 -108 c 0
 138 -76 148 -68 131 -69 c 0
 117 -70 52 -67 49 -71 c 1
50 -303 m 1
 58 -300 63 -290 69 -284 c 2
 112 -243 l 2
 118 -237 127 -231 130 -223 c 1
 130 -223 71 -222 69 -222 c 0
 48 -223 47 -216 49 -243 c 0
 49 -251 47 -297 50 -303 c 1
EndSplineSet
EndChar

StartChar: Q
Encoding: 81 81 17
Width: 345
Flags: HMW
HStem: -231 7 -132 8 -34 5 64 9 72 8 168 7 205 17<78 83> 268 8 368 7<225 285> 371 8<136 136> 425 2
VStem: 38 8 86 14 136 10 183 3 197 6 293 7
LayerCount: 2
Fore
SplineSet
188 518 m 2xe73f80
 209 533 202 533 243 501 c 0
 256 491 268 480 281 469 c 0
 303 451 300 457 301 432 c 0
 302 422 303 327 303 327 c 1
 301 272 299 218 301 162 c 0
 303 114 300 64 300 15 c 0
 300 -17 301 -221 298 -230 c 1
 233 -294 l 1
 206 -323 l 2
 203 -326 200 -332 196 -333 c 0
 190 -334 191 -322 191 -319 c 0
 193 -297 195 -98 195 -98 c 2
 195 -95 193 -91 194 -88 c 1
 194 -88 201 -22 193 -12 c 0
 185 -1 175 -12 168 -19 c 2
 126 -58 l 2
 122 -61 117 -70 111 -71 c 0
 102 -72 72 -35 54 -17 c 1
 35 5 36 -6 36 13 c 0
 36 24 37 36 38 48 c 0
 40 97 38 248 38 248 c 1
 39 388 l 2
 40 415 32 409 50 422 c 0
 59 428 68 435 77 442 c 0
 105 464 136 482 165 502 c 2
 188 518 l 2xe73f80
206 519 m 0
 204 519 149 484 146 478 c 0
 141 470 145 447 157 447 c 0
 163 447 170 458 173 462 c 2
 173 462 215 501 218 509 c 0
 220 513 209 520 206 519 c 0
211 492 m 0
 209 491 163 446 165 440 c 0
 165 438 200 404 216 392 c 1
 238 376 231 377 248 399 c 0
 268 427 290 446 289 452 c 0
 288 458 283 456 239 496 c 0
 221 513 223 504 211 492 c 0
137 464 m 1
 137 465 138 466 137 468 c 1
 137 468 127 466 137 464 c 1
136 378 m 1xe77f80
 138 384 136 390 137 397 c 0
 138 444 141 454 127 462 c 0
 121 465 112 455 107 452 c 0
 100 448 50 414 48 412 c 0
 44 407 46 382 47 381 c 0
 55 374 118 380 136 378 c 1xe77f80
197 -3 m 1
 200 8 197 24 197 36 c 0
 194 146 198 245 197 256 c 0
 194 404 200 393 194 403 c 0
 192 408 149 445 146 443 c 0
 139 440 144 131 146 79 c 1
 147 44 138 51 162 29 c 0
 173 20 183 4 197 -3 c 1
293 443 m 1
 284 439 277 427 272 419 c 1
 265 410 237 379 239 375 c 0
 240 373 292 373 294 376 c 0
 294 377 295 435 293 443 c 1
203 394 m 1
 202 391 201 377 204 375 c 0
 208 372 223 374 228 374 c 1xe7bf80
 225 382 211 392 203 394 c 1
136 278 m 1
 134 323 138 369 136 371 c 0
 135 372 51 374 48 371 c 0xe77f80
 45 367 43 305 45 288 c 0
 47 273 36 278 136 278 c 1
202 348 m 2
 202 297 l 1
 203 268 206 275 228 276 c 0
 297 279 293 263 293 297 c 0
 293 380 306 368 264 368 c 0xe7bf80
 201 368 202 376 202 348 c 2
138 189 m 0
 138 200 137 211 137 223 c 0
 137 261 137 268 135 270 c 0
 131 275 88 269 68 271 c 0
 44 273 46 250 46 250 c 1
 46 198 l 2
 46 193 44 181 48 178 c 0
 55 172 85 177 86 179 c 0
 87 180 88 204 86 209 c 1
 84 208 81 205 78 205 c 0
 66 206 63 225 65 233 c 1
 66 240 71 243 74 247 c 0
 82 256 86 262 92 252 c 0
 112 218 96 239 100 190 c 0
 101 179 93 176 121 176 c 1
 138 175 138 174 138 189 c 0
222 175 m 0
 235 175 248 176 260 176 c 0
 264 176 269 175 273 175 c 0
 300 177 293 167 293 240 c 0
 293 249 292 260 293 268 c 1
 285 270 208 270 204 268 c 0
 203 267 202 247 202 247 c 1
 202 170 194 175 222 175 c 0
79 241 m 0
 72 240 75 222 83 222 c 0
 92 223 87 242 79 241 c 0
46 159 m 0
 46 111 43 84 46 80 c 0xef3f80
 49 75 135 77 137 79 c 0
 140 81 139 95 138 99 c 0
 135 129 142 164 137 169 c 1
 137 169 105 173 98 168 c 0
 95 166 94 153 88 154 c 0
 83 155 87 167 85 169 c 0
 82 172 66 169 57 170 c 0
 45 172 46 171 46 159 c 0
204 168 m 0
 200 165 202 99 203 91 c 0
 205 69 202 72 228 73 c 0xf73f80
 248 74 268 71 288 74 c 0
 296 76 292 112 292 128 c 2
 292 155 l 2
 292 158 292 165 290 167 c 0
 286 171 206 170 204 168 c 0
104 71 m 1
 99 73 93 72 88 72 c 0xef3f80
 76 72 49 75 46 71 c 0
 44 68 43 35 43 31 c 0
 45 12 49 21 56 27 c 0
 104 65 102 63 104 71 c 1
121 70 m 1
 122 68 133 54 137 56 c 0
 140 57 139 69 137 71 c 0
 134 73 124 72 121 70 c 1
205 64 m 1xf73f80
 201 61 203 -22 206 -24 c 1
 208 -26 265 -30 277 -29 c 0
 299 -27 295 -25 293 -3 c 0
 291 23 294 60 291 65 c 0
 288 69 208 68 205 64 c 1xf73f80
93 49 m 0
 28 -9 28 24 93 -48 c 0
 113 -70 111 -63 127 -48 c 2
 163 -14 l 2
 183 4 183 0 165 17 c 0
 104 75 120 74 93 49 c 0
203 -51 m 0
 201 -61 201 -122 203 -124 c 0
 205 -127 284 -126 291 -125 c 0
 298 -123 293 -69 293 -55 c 0
 293 -25 296 -36 240 -34 c 0
 196 -33 206 -34 203 -51 c 0
279 -132 m 2
 279 -132 208 -131 203 -135 c 0
 200 -137 200 -150 200 -154 c 0
 206 -228 186 -224 224 -224 c 0
 287 -224 279 -226 288 -224 c 1
 298 -222 293 -175 293 -155 c 0
 293 -140 300 -132 279 -132 c 2
200 -318 m 1
 212 -315 225 -289 283 -233 c 1
 276 -225 256 -232 248 -231 c 0
 220 -230 205 -230 203 -232 c 0
 198 -236 198 -313 200 -318 c 1
EndSplineSet
EndChar

StartChar: R
Encoding: 82 82 18
Width: 327
Flags: HMW
HStem: 67 8 270 6 368 8<140 153 140 160>
VStem: 67 6<103 116> 163 6
LayerCount: 2
Fore
SplineSet
67 112 m 0
 67 121 64 132 64 199 c 0
 64 431 75 391 33 432 c 0
 29 436 20 441 20 448 c 0
 20 456 30 462 35 468 c 2
 72 511 l 2
 78 518 90 530 90 530 c 1
 97 532 113 510 159 472 c 0
 165 468 169 460 176 458 c 0
 184 455 191 469 195 473 c 0
 206 487 220 499 231 512 c 0
 239 522 241 540 265 513 c 0
 288 486 320 467 320 455 c 0
 320 448 268 385 268 385 c 1
 260 376 260 373 242 388 c 2
 207 419 l 2
 199 427 172 457 168 442 c 1
 168 248 l 1
 169 233 171 218 171 203 c 0
 171 65 169 93 169 65 c 0
 169 39 167 48 178 36 c 2
 199 12 l 2
 215 -6 207 -1 194 -18 c 0
 182 -34 166 -47 154 -61 c 0
 150 -66 146 -76 140 -78 c 0
 131 -80 116 -55 105 -45 c 0
 94 -34 82 -25 72 -13 c 0
 69 -8 58 -4 58 3 c 0
 58 9 66 12 67 19 c 0
 68 32 65 47 65 60 c 0
 65 78 67 94 67 112 c 0
78 507 m 0
 66 495 54 480 42 467 c 0
 21 444 28 446 46 431 c 0
 107 379 93 369 117 397 c 2
 152 437 l 2
 172 460 169 454 149 472 c 2
 110 508 l 2
 87 529 94 523 78 507 c 0
231 502 m 1
 198 467 l 2
 195 463 185 455 186 450 c 0
 187 446 250 386 258 388 c 1
 264 389 302 439 302 439 c 1
 317 458 320 450 282 488 c 0
 240 530 246 517 231 502 c 1
109 378 m 1
 120 375 134 375 145 375 c 0
 162 375 162 378 161 392 c 0
 160 406 163 430 159 432 c 1
 156 434 148 423 146 421 c 0
 135 407 117 395 109 378 c 1
73 394 m 1
 68 376 70 369 92 376 c 1
 90 383 80 392 73 394 c 1
73 368 m 0
 69 365 72 319 71 295 c 1
 71 270 76 273 101 276 c 0
 119 278 139 273 158 276 c 0
 167 278 159 333 161 355 c 0
 162 358 163 365 160 368 c 0
 158 370 76 370 73 368 c 0
83 270 m 0
 75 270 70 273 72 245 c 0
 74 213 66 183 74 177 c 0
 80 172 157 175 158 175 c 0
 166 177 163 190 163 196 c 2
 163 196 164 264 162 267 c 0
 158 275 99 270 83 270 c 0
85 228 m 1
 87 234 98 247 106 244 c 0
 109 242 110 234 113 234 c 0
 116 233 118 239 120 241 c 0
 122 243 136 239 137 236 c 0
 140 222 114 230 113 222 c 0
 113 219 121 211 123 209 c 0
 129 207 135 209 123 198 c 0
 109 186 112 203 102 209 c 0
 100 211 98 212 97 214 c 0
 96 220 106 222 100 229 c 0
 97 234 91 226 85 228 c 1
72 168 m 0
 69 163 74 120 72 98 c 0
 71 92 68 81 73 76 c 0
 76 72 89 75 94 75 c 0
 166 75 162 69 163 96 c 0
 163 104 164 162 161 167 c 0
 160 169 74 172 72 168 c 0
74 21 m 1
 86 28 121 64 122 68 c 1
 122 68 78 71 74 67 c 0
 72 65 69 33 74 21 c 1
147 67 m 1
 149 65 157 54 160 55 c 0
 164 57 162 66 160 68 c 0
 157 71 150 69 147 67 c 1
119 54 m 0
 107 42 93 31 82 18 c 1
 67 1 62 8 78 -8 c 2
 103 -35 l 1
 151 -83 129 -74 185 -17 c 0
 203 1 206 -5 166 38 c 0
 129 77 135 70 119 54 c 0
EndSplineSet
EndChar

StartChar: S
Encoding: 83 83 19
Width: 330
Flags: HMW
VStem: 11 8 109 6 191 6 288 8
LayerCount: 2
Fore
SplineSet
92 507 m 2
 111 527 108 520 143 505 c 0
 165 495 281 440 283 436 c 1
 285 429 213 325 214 317 c 0
 216 303 308 242 313 230 c 0
 317 222 299 215 295 208 c 0
 289 196 296 124 296 124 c 1
 298 80 292 111 298 36 c 0
 300 14 295 27 248 -30 c 0
 235 -46 207 -77 203 -78 c 0
 191 -81 89 -22 82 -18 c 2
 82 -18 43 -1 24 10 c 1
 9 18 12 18 30 45 c 0
 58 89 87 132 86 135 c 0
 84 143 70 150 64 155 c 2
 13 198 l 2
 6 204 -3 210 -6 218 c 0
 -11 230 7 238 11 247 c 0
 12 250 9 316 11 377 c 0
 12 419 1 409 25 438 c 0
 38 453 53 467 66 481 c 2
 92 507 l 2
104 508 m 0
 99 507 94 499 91 496 c 2
 58 462 l 2
 39 443 41 446 58 438 c 2
 91 422 l 2
 112 412 108 416 108 436 c 0
 108 498 111 509 104 508 c 0
115 494 m 1
 114 481 116 467 116 455 c 0
 117 401 109 413 141 399 c 1
 162 391 181 378 201 369 c 1
 224 360 221 341 250 393 c 0
 269 426 283 431 268 438 c 2
 268 438 136 500 134 501 c 0
 111 515 117 506 115 494 c 1
19 255 m 1
 24 257 63 299 71 299 c 1
 76 300 104 269 109 272 c 0
 113 275 109 328 109 379 c 0
 109 408 115 403 83 418 c 0
 37 440 39 442 31 432 c 0
 13 412 16 420 18 373 c 1
 18 373 14 273 19 255 c 1
115 361 m 0
 115 339 118 318 117 297 c 0
 116 268 111 266 127 254 c 0
 156 230 149 231 168 261 c 2
 209 325 l 2
 227 352 222 352 216 354 c 0
 129 400 121 402 118 400 c 0
 116 400 115 400 115 361 c 0
170 251 m 1
 175 253 179 258 182 261 c 2
 207 286 l 2
 213 291 226 296 211 305 c 0
 204 310 200 301 197 296 c 0
 169 254 171 255 170 251 c 1
43 268 m 1
 -11 209 -17 237 55 171 c 0
 76 152 75 157 94 177 c 1
 129 210 l 1
 148 230 149 224 130 242 c 0
 117 254 103 270 87 280 c 0
 71 291 74 303 43 268 c 1
210 279 m 1
 198 267 184 254 172 242 c 0
 162 231 147 231 174 210 c 0
 237 161 223 154 251 178 c 0
 307 227 306 226 305 228 c 1
 305 234 305 229 243 281 c 0
 221 299 223 290 210 279 c 1
215 247 m 1
 220 245 230 245 233 242 c 0
 244 231 212 205 198 220 c 0
 195 223 197 229 202 230 c 1
 210 230 210 220 218 228 c 0
 229 239 200 229 202 243 c 0
 203 248 209 261 214 263 c 0
 222 268 248 269 233 258 c 0
 227 253 219 255 215 247 c 1
143 207 m 1
 134 195 76 109 76 101 c 1
 77 97 77 99 165 57 c 0
 182 49 193 36 191 56 c 1
 189 148 l 1
 190 193 189 186 176 200 c 1
 147 228 152 220 143 207 c 1
128 200 m 1
 121 198 118 191 113 186 c 0
 99 171 77 156 82 149 c 0
 84 146 91 142 94 144 c 1
 94 144 124 182 128 200 c 1
283 197 m 0
 280 196 239 156 233 155 c 0
 219 154 203 183 197 175 c 1
 197 126 l 1
 199 34 193 44 212 33 c 0
 271 1 268 3 278 13 c 0
 299 34 289 35 288 93 c 1
 288 152 l 1
 286 178 292 199 283 197 c 0
47 59 m 0
 31 28 15 24 33 15 c 0
 176 -64 188 -64 190 -63 c 0
 191 -63 191 -63 191 -12 c 0
 191 36 190 32 188 36 c 0
 185 42 174 45 168 47 c 0
 150 56 131 65 112 73 c 0
 65 93 70 103 47 59 c 0
199 -68 m 1
 207 -66 211 -58 216 -52 c 2
 248 -18 l 2
 251 -15 264 -7 263 -1 c 1
 261 3 223 21 213 26 c 0
 195 36 197 32 197 15 c 0
 197 -68 197 -64 199 -68 c 1
EndSplineSet
EndChar

StartChar: T
Encoding: 84 84 20
Width: 226
Flags: HMW
HStem: 67 8 168 6 377 8 437 7
VStem: 21 36 51 7 55 5 84 15 144 6 188 6
LayerCount: 2
Fore
SplineSet
136 569 m 0xf9c0
 155 591 148 563 150 545 c 0
 151 531 157 535 173 535 c 0
 250 533 248 536 249 529 c 0
 250 521 233 502 206 461 c 0
 202 454 196 442 188 438 c 0
 180 433 154 444 152 432 c 1
 156 178 l 2
 157 157 155 137 156 117 c 0
 156 110 157 105 157 97 c 0
 156 55 150 59 166 43 c 2
 193 18 l 2
 196 15 201 12 202 7 c 0
 204 -7 178 -18 151 -50 c 1
 129 -74 130 -74 118 -62 c 0
 110 -54 102 -49 94 -41 c 0
 83 -31 74 -20 63 -10 c 0
 59 -6 50 -1 48 5 c 0
 46 12 54 10 55 23 c 0xf3c0
 56 39 51 431 51 433 c 0xf5c0
 49 444 19 431 21 443 c 0
 21 449 104 529 136 569 c 0xf9c0
118 536 m 1
 124 535 136 533 141 537 c 0
 145 539 144 561 142 562 c 0
 140 563 120 544 118 536 c 1
95 512 m 0
 51 468 57 472 57 461 c 0xf9c0
 58 439 51 442 113 443 c 0
 144 444 144 440 144 452 c 2
 144 478 l 2
 144 489 142 500 143 512 c 0
 144 524 143 528 133 528 c 0
 101 530 109 525 95 512 c 0
150 525 m 0
 149 523 150 446 153 444 c 0
 155 442 175 441 179 442 c 0
 192 444 188 462 188 471 c 0
 189 482 187 523 184 526 c 0
 180 530 152 529 150 525 c 0
196 462 m 1
 204 464 212 488 229 510 c 0
 231 512 240 523 238 526 c 0
 238 527 200 533 194 524 c 0
 191 517 194 508 194 500 c 1
 196 488 194 474 196 462 c 1
33 446 m 1
 37 445 47 444 49 446 c 0
 51 448 51 461 49 463 c 0
 47 464 35 454 33 446 c 1
121 437 m 0
 49 434 59 453 58 398 c 0xf5c0
 58 375 58 386 123 384 c 0
 149 382 147 373 145 426 c 0
 144 438 148 438 121 437 c 0
126 377 m 0
 104 377 60 382 58 374 c 1
 58 374 59 281 61 279 c 0
 63 277 144 278 144 278 c 1
 150 279 148 294 148 299 c 0
 148 317 147 333 147 351 c 0
 147 374 150 377 126 377 c 0
60 268 m 0xf3c0
 58 262 62 217 60 201 c 0
 60 195 59 181 62 176 c 0
 65 172 78 175 83 175 c 0
 90 175 97 174 104 173 c 0
 111 173 117 175 123 174 c 0
 162 173 145 170 148 246 c 0
 149 253 150 262 146 268 c 0
 144 271 62 273 60 268 c 0xf3c0
103 254 m 0
 111 253 102 244 103 242 c 0
 105 236 116 244 119 240 c 0
 121 238 119 234 117 232 c 0
 113 227 101 230 99 225 c 0
 93 213 106 208 107 206 c 0
 109 202 98 196 94 196 c 0
 92 196 84 206 84 206 c 1
 82 210 89 222 85 228 c 0
 84 230 80 229 80 232 c 0
 81 238 95 244 98 249 c 0
 100 251 101 254 103 254 c 0
62 164 m 0
 60 160 64 123 62 103 c 0
 60 72 59 74 75 74 c 0
 87 74 102 71 113 73 c 0
 117 74 119 80 123 80 c 1
 126 79 131 72 143 74 c 0
 155 76 147 105 149 143 c 0
 151 164 151 170 128 168 c 0
 90 166 68 175 62 164 c 0
100 49 m 0
 91 39 79 32 69 22 c 0
 51 4 49 10 71 -9 c 0
 85 -21 98 -36 112 -48 c 0
 133 -67 127 -64 146 -44 c 0
 157 -32 169 -23 181 -11 c 0
 195 3 205 1 180 22 c 0
 112 79 132 81 100 49 c 0
63 26 m 1
 66 27 106 62 104 66 c 0
 103 69 66 70 63 67 c 0
 59 64 59 37 63 26 c 1
143 68 m 0
 140 66 146 60 148 62 c 1
 152 64 145 70 143 68 c 0
EndSplineSet
EndChar

StartChar: U
Encoding: 85 85 21
Width: 397
Flags: HMW
HStem: 77 7 172 7<250 278 238 308> 272 7<303 311 311 314 261 325> 373 9
VStem: 59 8 83 15 112 17<211 212> 158 8 230 7<413 452> 330 9
LayerCount: 2
Fore
SplineSet
151 582 m 0
 162 587 181 578 188 570 c 0
 198 558 195 552 208 560 c 0
 215 564 224 576 233 574 c 0
 242 572 217 554 209 545 c 0
 204 538 204 523 187 541 c 0
 175 553 164 563 151 574 c 0
 149 576 147 580 151 582 c 0
165 574 m 1
 170 565 180 562 186 554 c 0
 188 551 193 543 197 542 c 0
 200 541 206 550 207 552 c 1
 205 551 201 547 198 548 c 0
 195 548 183 570 165 574 c 1
99 535 m 0
 107 537 114 525 118 521 c 2
 162 476 l 2
 165 473 177 464 176 459 c 1
 176 453 168 452 167 446 c 0
 165 431 168 416 168 401 c 0
 168 379 165 356 165 334 c 0
 165 319 167 305 167 290 c 0
 166 267 164 80 166 57 c 0
 167 46 173 44 181 37 c 0
 213 7 219 17 194 -10 c 0
 190 -14 139 -67 136 -68 c 0
 128 -70 118 -57 114 -52 c 0
 85 -24 49 -2 49 7 c 0
 49 14 59 14 60 22 c 0
 61 33 59 45 59 57 c 0
 60 94 62 131 61 169 c 0
 61 179 59 190 59 200 c 0
 60 212 62 405 61 407 c 0
 60 416 22 449 21 457 c 0
 21 462 57 492 83 518 c 0
 87 522 93 533 99 535 c 0
262 481 m 0
 291 501 336 545 339 533 c 0
 340 531 337 519 339 440 c 0
 339 421 338 401 338 382 c 0
 338 361 340 341 339 321 c 0
 335 226 338 235 338 226 c 0
 330 38 331 49 362 24 c 0
 390 2 375 4 362 -11 c 2
 325 -52 l 2
 307 -72 310 -79 287 -57 c 0
 229 -2 221 1 222 9 c 0
 222 14 230 17 231 23 c 0
 232 32 230 43 230 53 c 0
 230 96 228 183 229 269 c 0
 229 278 232 345 230 441 c 0
 230 464 230 459 262 481 c 0
88 512 m 0
 86 510 31 464 32 454 c 0
 32 451 60 420 67 414 c 0
 101 381 90 379 112 401 c 0
 169 458 167 456 166 460 c 1
 166 467 122 506 113 518 c 0
 100 535 96 520 88 512 c 0
306 504 m 1
 289 493 272 480 257 468 c 0
 235 449 237 461 237 418 c 0
 237 409 236 400 238 392 c 1
 239 383 234 380 261 382 c 0
 274 383 320 381 326 383 c 0
 334 385 330 402 330 409 c 0
 331 514 333 509 332 514 c 0
 330 530 316 512 306 504 c 1
102 380 m 1
 113 379 150 376 158 382 c 0
 163 386 160 438 159 438 c 0
 153 436 148 429 144 425 c 2
 115 397 l 2
 111 392 104 386 102 380 c 1
69 401 m 1
 67 397 65 382 70 379 c 0
 74 377 85 379 89 381 c 1
 89 382 l 1
 69 401 l 1
238 372 m 0
 237 370 238 312 237 302 c 0
 236 276 235 276 261 278 c 0
 277 280 295 278 311 278 c 0
 317 278 323 276 328 278 c 0
 334 280 331 299 331 299 c 2
 331 305 332 369 329 373 c 0
 326 379 240 378 238 372 c 0
69 370 m 1
 67 369 66 282 69 278 c 1
 72 276 154 277 154 277 c 1
 162 279 159 292 159 297 c 0
 159 375 168 371 142 372 c 0
 83 375 71 373 69 370 c 1
315 272 m 0
 292 272 242 273 238 270 c 0
 233 265 238 212 237 200 c 0
 236 196 235 182 238 179 c 0
 241 177 269 180 278 179 c 0
 336 177 326 176 329 195 c 0
 332 212 329 230 330 247 c 0
 332 265 336 272 315 272 c 0
67 202 m 0
 66 174 68 179 90 178 c 0
 162 176 158 172 158 198 c 0
 157 269 160 266 158 269 c 0
 155 273 134 271 101 271 c 0
 59 272 70 277 67 202 c 0
97 267 m 0
 103 270 103 255 97 252 c 0
 89 248 93 265 97 267 c 0
112 265 m 0
 120 267 114 250 108 249 c 0
 100 247 107 264 112 265 c 0
98 218 m 1
 108 223 110 243 118 244 c 0
 128 246 113 231 124 218 c 0
 126 216 128 214 128 211 c 0
 127 207 115 196 112 200 c 0
 110 202 113 200 109 218 c 1
 103 214 101 201 93 199 c 0
 80 197 88 218 87 226 c 0
 86 228 81 234 83 236 c 0
 85 240 95 247 98 242 c 0
 99 240 98 242 98 218 c 1
74 172 m 0
 62 170 69 161 67 105 c 0
 67 99 64 91 68 85 c 0
 69 84 87 80 141 83 c 0
 156 85 161 79 158 102 c 0
 157 108 160 167 157 171 c 0
 153 175 143 171 138 172 c 1
 138 172 76 173 74 172 c 0
308 172 m 0
 290 172 268 174 250 172 c 0
 231 170 236 176 236 103 c 0
 236 72 235 82 258 80 c 0
 295 77 288 83 295 82 c 0
 298 82 307 75 325 79 c 0
 331 81 328 95 328 99 c 0
 326 117 328 135 328 152 c 0
 328 174 330 172 308 172 c 0
118 77 m 1
 114 79 70 80 68 74 c 1
 68 74 62 30 70 30 c 0
 74 30 80 36 82 39 c 0
 92 52 114 67 118 77 c 1
136 77 m 1
 138 70 155 56 158 58 c 0
 160 60 159 76 156 77 c 1
 150 80 142 77 136 77 c 1
244 25 m 0
 222 4 231 10 262 -22 c 0
 309 -70 305 -67 324 -43 c 0
 344 -18 368 0 367 8 c 0
 366 12 316 58 308 66 c 0
 290 85 290 67 244 25 c 0
238 29 m 1
 244 31 248 37 251 41 c 0
 260 52 273 60 279 72 c 1
 267 78 240 74 238 72 c 0
 236 70 236 41 238 29 c 1
312 72 m 1
 314 69 323 58 327 60 c 0
 329 61 329 70 327 72 c 0
 325 75 315 74 312 72 c 1
108 57 m 0
 46 -6 50 16 93 -26 c 0
 141 -71 136 -58 150 -45 c 0
 162 -33 176 -21 187 -8 c 0
 200 9 204 6 188 20 c 2
 163 42 l 1
 116 83 126 75 108 57 c 0
EndSplineSet
EndChar

StartChar: V
Encoding: 86 86 22
Width: 357
Flags: HMW
HStem: 72 8 172 7 275 7 378 5<142 146> 423 35 518 17G<90 96>
VStem: 51 8 56 5 152 5 152 8 219 8 321 7
LayerCount: 2
Fore
SplineSet
237 518 m 0xfd30
 252 533 255 545 271 528 c 1
 298 503 l 2
 299 502 334 467 336 462 c 0
 338 454 328 457 327 438 c 1
 329 347 l 1
 331 310 327 274 327 238 c 0
 327 197 330 156 328 115 c 0
 326 60 332 40 329 33 c 0
 327 29 320 29 316 27 c 2
 285 8 l 2
 273 0 172 -53 160 -61 c 0
 137 -76 143 -74 123 -58 c 0
 71 -20 66 -14 59 -10 c 0xfe70
 47 -1 57 -2 56 9 c 2xfd30
 51 257 l 2xfe30
 51 290 56 325 56 358 c 2
 56 398 l 2
 56 424 53 419 24 446 c 0
 21 448 14 452 16 458 c 0
 20 469 35 479 43 487 c 2
 78 522 l 2
 81 526 87 534 93 534 c 0
 100 534 107 524 111 520 c 2
 153 476 l 2
 166 462 170 458 171 458 c 0
 173 458 176 461 178 463 c 2
 194 478 l 1
 207 492 223 504 237 518 c 0xfd30
182 455 m 1
 232 414 l 2
 257 393 256 386 275 405 c 2
 315 445 l 2
 318 448 327 455 327 461 c 0
 326 467 297 494 272 518 c 1
 254 537 253 523 240 511 c 0
 210 483 184 462 182 455 c 1
73 507 m 0
 64 498 26 463 26 456 c 0
 26 448 67 416 80 404 c 1
 101 382 100 398 111 408 c 0
 143 440 163 449 161 457 c 0
 161 458 161 458 109 512 c 0
 89 532 91 524 73 507 c 0
168 451 m 0
 159 449 160 432 161 425 c 0
 164 398 159 371 160 343 c 1xfc70
 160 343 158 226 157 216 c 1xfcb0
 157 188 161 160 160 132 c 0
 159 114 156 53 162 43 c 0
 162 42 215 -1 219 0 c 0
 227 2 217 82 219 334 c 0
 220 418 232 404 210 423 c 0
 209 423 177 453 168 451 c 0
321 439 m 1
 313 437 308 429 303 424 c 0
 278 396 266 390 269 386 c 0
 270 384 318 381 321 386 c 0
 323 388 322 431 321 439 c 1
154 437 m 1
 147 435 145 428 113 400 c 0
 92 381 104 383 142 382 c 0
 157 382 156 383 154 437 c 1
90 385 m 1
 87 393 78 397 73 403 c 0
 58 418 63 386 66 384 c 0
 70 381 85 384 90 385 c 1
255 385 m 1
 253 391 235 407 230 404 c 1
 227 401 227 385 231 383 c 0
 235 381 250 383 255 385 c 1
61 355 m 0xfd30
 61 338 62 320 60 304 c 0
 56 275 62 280 86 282 c 0
 107 284 128 279 148 282 c 0
 157 284 152 335 153 353 c 0
 155 375 157 378 136 378 c 0
 55 378 62 387 61 355 c 0xfd30
230 374 m 1
 226 366 226 303 226 303 c 1
 226 278 225 279 251 281 c 0
 311 283 305 279 317 282 c 0
 324 284 320 297 321 302 c 0
 323 316 323 373 321 375 c 0
 318 379 305 378 300 377 c 0
 285 376 235 382 230 374 c 1
83 277 m 0
 78 276 72 275 66 275 c 0
 56 274 59 277 59 251 c 0
 60 203 56 186 61 179 c 1
 66 174 75 179 81 178 c 0
 99 176 146 178 146 178 c 1
 159 180 149 212 152 246 c 0xfe70
 152 254 155 267 151 274 c 0
 148 278 137 277 133 277 c 0
 117 277 100 279 83 277 c 0
260 275 m 1
 229 272 224 283 226 251 c 1
 229 220 221 188 229 181 c 0
 231 179 303 180 317 182 c 0
 322 183 321 199 321 203 c 0
 320 226 322 267 319 272 c 0
 317 276 308 275 304 275 c 0
 290 275 274 277 260 275 c 1
65 232 m 0
 61 235 81 257 85 239 c 0
 92 213 94 215 95 214 c 0
 100 213 103 224 101 227 c 0
 99 233 94 229 92 232 c 0
 90 235 102 248 105 247 c 1
 114 247 119 226 101 207 c 0
 93 198 97 199 86 204 c 0
 84 205 78 204 76 206 c 0
 71 211 84 210 77 228 c 0
 75 235 68 229 65 232 c 0
244 174 m 0
 225 174 226 174 226 152 c 2
 226 101 l 2
 226 74 227 81 285 81 c 0
 317 81 321 75 321 91 c 0
 321 177 323 175 308 175 c 0
 244 175 299 174 244 174 c 0
152 100 m 0
 152 114 151 129 152 142 c 0
 154 174 154 171 137 171 c 0
 131 171 137 173 74 172 c 0
 47 171 68 164 61 103 c 0
 58 77 63 80 85 80 c 0
 158 80 152 74 152 100 c 0
63 13 m 1
 69 15 73 24 77 28 c 0
 91 46 114 67 112 72 c 0
 110 74 64 79 61 72 c 0xfd30
 59 69 60 26 63 13 c 1
229 72 m 0
 227 69 229 26 227 6 c 0
 224 -28 241 -6 294 22 c 0
 303 26 315 31 321 40 c 0
 322 41 322 70 318 73 c 0
 316 75 231 75 229 72 c 0
121 73 m 1
 122 71 142 54 151 52 c 1
 153 57 155 69 151 73 c 0
 149 76 126 75 121 73 c 1
91 35 m 0
 85 27 78 22 72 14 c 0
 54 -10 62 -4 100 -32 c 0
 129 -54 136 -61 142 -59 c 1
 144 -57 171 -22 183 -8 c 1
 200 10 194 10 181 19 c 0
 172 26 164 34 155 40 c 0
 107 72 125 75 91 35 c 0
159 -52 m 1
 167 -50 217 -25 221 -17 c 0
 223 -11 207 2 201 2 c 0
 195 1 171 -33 167 -38 c 0
 165 -41 158 -47 159 -52 c 1
EndSplineSet
EndChar

StartChar: W
Encoding: 87 87 23
Width: 502
Flags: HMW
HStem: 68 7 74 8<63 63> 167 6<227 294> 170 6 172 8 271 7<254 299> 275 9 370 7 377 7
VStem: 55 7 154 8 219 7 314 4 382 6 474 7 474 8
LayerCount: 2
Fore
SplineSet
380 1 m 1x01fd
 383 13 381 27 381 39 c 0
 381 60 382 81 382 102 c 0
 382 110 380 118 380 126 c 0
 382 173 379 412 379 413 c 0
 377 422 335 451 334 459 c 0
 333 466 335 461 391 516 c 0
 411 535 407 534 419 522 c 0
 440 501 485 473 488 464 c 0
 490 458 483 453 481 448 c 0x01fe
 479 441 485 347 483 206 c 0
 480 4 491 29 469 17 c 1
 436 0 l 2
 427 -5 418 -12 410 -17 c 2
 346 -52 l 1
 288 -82 324 -80 239 -18 c 0
 211 2 218 -13 219 33 c 0
 219 37 220 399 218 403 c 0
 213 412 201 418 194 425 c 0
 178 440 173 452 164 437 c 1
 156 425 161 334 161 107 c 1
 162 45 145 56 199 7 c 0
 202 5 215 -4 214 -8 c 0
 212 -18 200 1 192 -7 c 0
 175 -24 159 -42 141 -57 c 0
 124 -71 129 -84 105 -58 c 0
 90 -42 74 -28 59 -12 c 0
 55 -8 43 -2 44 5 c 0
 45 15 54 9 56 31 c 0
 57 45 55 90 55 398 c 0
 55 417 57 413 37 433 c 0
 7 461 20 448 64 499 c 0
 92 532 86 530 109 508 c 0
 122 496 139 485 151 472 c 0
 176 446 165 452 224 506 c 0
 254 533 237 532 309 474 c 0
 316 469 327 462 330 455 c 0
 335 446 321 440 319 432 c 0
 318 430 323 162 323 83 c 1
 323 83 317 58 345 32 c 0
 357 21 368 11 380 1 c 1x01fd
395 508 m 0
 356 476 370 484 358 474 c 0
 337 456 342 459 355 446 c 1
 366 437 376 425 388 417 c 0
 426 389 416 383 434 405 c 0
 477 457 482 457 480 462 c 0
 479 466 454 485 441 496 c 0
 401 528 412 522 395 508 c 0
76 501 m 2
 42 467 l 2
 26 451 26 452 37 442 c 2
 88 389 l 2
 104 373 98 378 113 394 c 0
 125 406 141 420 150 435 c 0
 152 438 163 448 163 452 c 1
 161 458 151 462 147 466 c 0
 134 478 121 490 108 502 c 0
 87 522 91 517 76 501 c 2
227 498 m 0
 199 470 178 456 179 449 c 0
 180 443 248 381 257 384 c 0
 265 387 296 423 308 435 c 0
 311 438 323 446 322 451 c 0
 321 456 284 484 265 503 c 1
 244 522 244 514 227 498 c 0
474 437 m 1
 464 435 425 387 427 383 c 0
 428 382 472 383 474 386 c 0
 476 389 476 403 474 407 c 0
 473 409 470 410 470 412 c 0
 470 414 480 416 474 437 c 1
263 377 m 1
 281 375 308 376 310 378 c 0
 312 380 317 414 310 426 c 1
 304 424 300 418 296 413 c 0
 277 391 265 389 263 377 c 1
153 374 m 1
 154 384 155 424 151 424 c 1
 149 425 144 418 142 416 c 0
 134 407 103 380 106 376 c 0
 108 373 106 378 153 374 c 1
385 408 m 1
 384 403 383 386 387 383 c 0
 393 379 407 383 414 383 c 1
 413 385 394 405 385 408 c 1
62 405 m 1
 61 398 62 391 62 384 c 0
 62 380 59 367 91 376 c 1
 89 383 69 404 62 405 c 1
226 395 m 0
 222 393 225 380 227 377 c 0
 229 375 244 375 247 377 c 0
 251 379 233 397 226 395 c 0
388 373 m 0
 383 368 390 330 388 301 c 0
 386 276 386 284 450 284 c 0
 458 284 466 282 473 284 c 0
 478 286 474 284 474 363 c 0x03fd
 474 366 476 375 474 377 c 0
 473 378 391 376 388 373 c 0
154 307 m 0
 154 329 153 349 153 371 c 1
 121 362 71 373 64 367 c 0
 62 365 59 360 61 298 c 0
 62 270 57 280 142 278 c 0
 159 278 154 280 154 307 c 0
289 278 m 0x05fc
 311 278 317 272 314 298 c 0
 306 366 328 370 293 370 c 0
 270 370 229 373 226 367 c 0
 224 363 225 353 225 348 c 2
 225 301 l 2
 225 270 221 278 289 278 c 0x05fc
389 274 m 0
 386 266 387 256 388 248 c 0
 390 222 386 187 389 182 c 0
 392 178 405 180 409 180 c 2
 409 180 470 179 471 179 c 0
 476 181 476 179 476 254 c 0
 476 260 477 270 475 275 c 0x0bfc
 473 279 392 282 389 274 c 0
62 271 m 0x15fc
 60 269 60 270 62 198 c 0
 63 171 57 174 86 176 c 0
 107 177 130 172 151 176 c 0
 158 178 154 193 154 197 c 0
 154 213 153 229 154 245 c 1
 157 273 156 273 134 272 c 0
 126 272 65 276 62 271 c 0x15fc
307 172 m 2x21fc
 325 172 312 173 314 248 c 0
 315 264 321 271 299 271 c 2
 236 271 l 2
 234 271 228 271 226 269 c 0
 223 263 226 172 226 172 c 1x2dfc
 307 172 l 2x21fc
89 234 m 1
 92 236 97 246 101 245 c 0
 105 243 107 239 110 238 c 0
 112 238 126 252 130 233 c 0
 132 221 122 211 114 203 c 0
 107 196 106 208 100 206 c 1
 92 205 96 199 84 200 c 0
 68 201 80 198 76 223 c 0
 76 227 70 229 71 233 c 0
 71 234 82 259 89 234 c 1
94 230 m 0
 88 228 88 208 96 211 c 0
 105 215 102 233 94 230 c 0
114 230 m 0
 111 228 108 211 116 214 c 0
 124 218 120 233 114 230 c 0
390 172 m 0
 387 170 388 171 388 99 c 0
 388 74 389 81 411 79 c 0
 476 77 475 71 474 88 c 0x09fd
 473 116 475 144 475 158 c 0
 475 161 476 169 474 171 c 0x09fe
 471 174 394 174 390 172 c 0
61 130 m 1
 61 121 63 112 62 103 c 0
 62 97 60 88 63 82 c 0
 64 80 120 79 128 78 c 0
 170 75 148 75 154 148 c 0
 155 153 158 164 154 168 c 0
 152 170 65 170 65 170 c 1x51fc
 61 168 61 130 61 130 c 1
227 167 m 0xa1fc
 225 165 225 78 227 75 c 0
 229 72 242 75 247 75 c 0
 259 75 311 73 314 76 c 0
 320 80 315 163 315 164 c 0
 311 168 299 167 294 167 c 0
 276 165 231 170 227 167 c 0xa1fc
63 27 m 1
 65 27 112 63 114 72 c 1
 114 72 66 76 64 74 c 0x41fc
 63 74 60 39 63 27 c 1
389 69 m 1
 386 65 388 54 389 49 c 0
 390 19 384 -14 398 -13 c 0
 404 -13 470 23 473 28 c 0
 480 37 476 70 474 71 c 0
 471 73 391 74 389 69 c 1
134 71 m 1
 136 65 142 59 147 56 c 0
 159 48 154 68 152 70 c 0
 149 72 139 71 134 71 c 1
226 8 m 1
 233 10 240 17 244 22 c 0
 272 55 283 62 281 66 c 0
 280 68 241 69 237 68 c 0x81fc
 222 66 225 61 225 49 c 0
 225 35 223 21 226 8 c 1
109 55 m 0
 95 44 80 33 68 21 c 0
 64 18 52 11 52 5 c 0
 52 -1 71 -15 86 -30 c 0
 128 -71 118 -71 139 -49 c 0
 149 -38 190 -2 190 2 c 0
 189 6 166 28 157 37 c 2
 134 60 l 2
 122 72 124 67 109 55 c 0
310 66 m 0
 307 64 313 58 315 60 c 0
 319 62 313 69 310 66 c 0
270 41 m 0
 262 32 253 24 245 16 c 0
 223 -7 231 -2 246 -15 c 0
 248 -17 297 -64 305 -60 c 0
 311 -58 346 -12 348 -9 c 0
 365 10 364 7 343 25 c 0
 332 34 322 47 310 55 c 0
 292 67 296 75 270 41 c 0
319 -58 m 1
 337 -48 l 1
 389 -19 l 1
 388 -12 373 4 365 1 c 0
 363 0 321 -50 319 -58 c 1
EndSplineSet
EndChar

StartChar: X
Encoding: 88 88 24
Width: 345
Flags: HMW
HStem: 68 7 168 8 272 8 368 8
VStem: 68 7 106 8 161 7
LayerCount: 2
Fore
SplineSet
248 525 m 0
 254 527 264 513 268 509 c 2
 315 468 l 2
 322 463 331 456 327 447 c 0
 316 426 292 411 277 393 c 0
 258 371 257 376 230 398 c 0
 219 408 207 418 196 427 c 0
 188 435 178 446 170 434 c 0
 161 422 172 405 168 292 c 0
 168 270 184 282 236 280 c 0
 252 279 262 287 254 272 c 1
 244 249 257 270 221 193 c 0
 218 187 216 175 210 171 c 0
 202 166 175 174 171 167 c 0
 169 165 171 160 171 158 c 0
 171 16 166 41 195 9 c 0
 208 -5 205 -7 193 -18 c 1
 166 -45 l 1
 145 -66 l 2
 137 -74 136 -81 117 -62 c 0
 109 -53 99 -46 90 -38 c 0
 74 -22 86 -23 51 -35 c 0
 49 -36 -31 -70 -52 -78 c 0
 -66 -84 -60 -73 -56 -70 c 2
 61 10 l 2
 74 19 70 18 70 151 c 0
 70 165 72 166 58 167 c 0
 20 168 6 160 14 177 c 0
 72 300 68 252 68 312 c 0
 68 395 66 378 66 395 c 0
 66 407 72 400 61 413 c 0
 46 431 27 441 28 451 c 1
 30 458 88 516 90 518 c 0
 98 521 166 452 177 454 c 0
 184 455 241 523 248 525 c 0
234 500 m 2
 197 463 l 2
 179 445 177 450 199 432 c 0
 229 410 252 386 259 388 c 1
 264 389 284 410 306 434 c 0
 318 447 334 446 286 485 c 0
 240 522 256 521 234 500 c 2
76 496 m 0
 65 486 56 475 47 464 c 0
 27 440 39 448 66 418 c 0
 68 416 101 380 109 382 c 0
 113 383 150 422 157 432 c 0
 168 447 180 441 154 461 c 0
 85 513 98 518 76 496 c 0
158 422 m 1
 121 386 l 2
 109 374 116 375 141 375 c 1
 141 375 161 376 161 377 c 0
 163 379 163 417 158 422 c 1
75 399 m 1
 73 394 72 378 77 376 c 0
 81 374 95 376 100 376 c 1
 95 384 83 394 75 399 c 1
76 368 m 0
 73 364 75 352 75 347 c 0
 76 334 72 287 77 282 c 0
 81 277 141 277 149 278 c 0
 170 280 161 267 161 349 c 0
 161 353 163 365 160 368 c 0
 160 369 81 374 76 368 c 0
188 272 m 0
 166 272 170 268 170 249 c 0
 170 179 169 180 171 178 c 0
 175 173 190 176 196 177 c 0
 206 178 209 186 213 194 c 0
 223 212 230 231 238 249 c 0
 240 255 248 265 246 272 c 0
 244 275 246 273 188 272 c 0
76 197 m 0
 76 164 70 177 136 176 c 0
 164 175 165 169 163 197 c 0
 162 215 163 265 161 268 c 0
 157 273 146 271 141 271 c 0
 125 270 110 272 94 272 c 0
 90 272 84 273 79 272 c 0
 74 270 76 273 76 197 c 0
21 175 m 1
 34 168 68 173 70 175 c 1
 71 177 71 257 69 262 c 1
 67 262 l 1
 67 262 22 181 21 175 c 1
121 242 m 0
 133 264 149 249 146 238 c 0
 142 222 122 223 121 215 c 0
 119 195 147 188 147 188 c 1
 155 181 116 174 109 202 c 0
 107 208 112 214 110 220 c 0
 109 222 97 235 106 248 c 0
 108 250 113 255 114 251 c 2
 114 251 107 232 116 235 c 0
 118 236 120 240 121 242 c 0
133 241 m 0
 128 240 122 230 131 231 c 0
 137 232 141 243 133 241 c 0
101 74 m 0
 162 74 164 68 164 85 c 0
 163 155 164 150 164 155 c 0
 162 174 172 168 93 168 c 0
 65 168 79 169 77 97 c 0
 76 74 77 74 101 74 c 0
77 22 m 1
 84 24 88 31 93 35 c 0
 106 47 130 63 128 67 c 0
 127 69 81 70 79 68 c 1
 79 68 74 36 77 22 c 1
146 67 m 1
 147 65 158 47 162 49 c 1
 165 49 166 64 164 66 c 0
 162 70 150 69 146 67 c 1
81 16 m 0
 78 13 65 5 66 0 c 0
 67 -5 75 -9 78 -12 c 0
 80 -15 127 -65 135 -63 c 0
 140 -61 197 -10 196 -3 c 0
 195 3 185 8 181 12 c 0
 129 71 154 80 81 16 c 0
-21 -57 m 1
 -9 -56 2 -48 12 -43 c 0
 53 -24 71 -23 69 -16 c 0
 68 -11 60 -3 55 -5 c 0
 45 -7 35 -16 27 -22 c 0
 12 -33 -10 -43 -21 -57 c 1
-29 -62 m 1
 -24 -59 l 1
 -29 -62 l 1
EndSplineSet
EndChar

StartChar: Y
Encoding: 89 89 25
Width: 349
Flags: HMW
HStem: -74 18G<131 133> -27 6 66 8 72 7 168 8<131 131> 269 8 368 8 371 9
VStem: 65 7 91 12 159 6 161 6 223 8 320 8
LayerCount: 2
Fore
SplineSet
237 512 m 0xccdc
 252 525 247 534 269 512 c 0
 327 454 332 460 331 452 c 0
 331 447 327 445 327 440 c 0
 324 413 329 222 329 222 c 1
 329 -26 l 1
 327 -32 237 -125 234 -128 c 0
 216 -144 179 -210 166 -212 c 0
 155 -214 174 -190 179 -183 c 0
 228 -108 221 -142 223 -92 c 0
 230 40 218 174 221 306 c 0
 222 316 220 406 219 406 c 0
 216 414 206 420 200 426 c 0
 186 439 180 452 170 440 c 0
 165 433 165 423 164 415 c 1xccec
 164 376 167 46 167 46 c 2
 167 38 173 33 178 28 c 2
 198 9 l 2
 216 -9 212 -7 192 -22 c 0
 141 -62 140 -73 133 -74 c 0
 131 -74 121 -73 69 -16 c 0
 65 -12 54 -3 53 2 c 0
 52 7 63 10 65 16 c 0
 66 21 65 175 65 176 c 0
 65 183 63 189 64 197 c 1
 64 209 65 220 66 232 c 1
 66 270 64 394 63 398 c 0
 59 409 12 444 15 452 c 0
 17 454 56 492 78 510 c 0
 83 514 91 529 98 526 c 0
 101 524 175 458 178 459 c 0
 181 459 180 462 237 512 c 0xccdc
238 503 m 1
 238 503 186 459 186 452 c 0
 186 444 220 415 239 399 c 0
 261 381 261 390 274 403 c 0
 319 448 323 446 322 452 c 0
 322 455 321 451 269 503 c 0
 250 522 256 516 238 503 c 1
81 505 m 0
 67 493 52 480 39 466 c 0
 20 447 14 457 61 412 c 1
 85 388 l 2
 97 376 94 377 114 398 c 0
 126 411 142 423 155 435 c 0
 182 459 174 450 132 488 c 0
 90 526 100 520 81 505 c 0
317 435 m 1
 311 433 264 380 258 380 c 0xcdcc
 249 379 233 403 228 398 c 1
 228 398 224 378 229 376 c 0xcecc
 231 375 315 373 317 375 c 0
 320 377 324 421 317 435 c 1
158 364 m 0
 159 413 167 443 145 418 c 1
 132 405 104 385 107 380 c 0
 108 378 160 380 152 372 c 0
 149 368 139 371 134 371 c 0
 66 373 69 383 69 353 c 0
 69 288 69 280 74 278 c 1
 74 278 156 274 159 278 c 0xcdec
 162 283 158 356 158 364 c 0
70 392 m 1
 66 381 73 378 83 380 c 1
 81 385 75 390 70 392 c 1
229 366 m 0
 225 360 229 308 229 300 c 0
 228 273 228 277 252 277 c 0
 304 278 306 272 318 275 c 0
 325 277 319 291 319 296 c 0
 319 365 321 361 318 365 c 0
 316 369 305 367 300 368 c 1xcecc
 292 368 232 371 229 366 c 0
227 252 m 0
 226 245 227 239 227 232 c 0
 227 179 220 171 255 173 c 0
 276 175 298 169 318 172 c 0
 323 172 321 188 321 192 c 0
 319 210 322 228 321 246 c 0
 320 274 330 267 271 269 c 0
 219 270 229 270 227 252 c 0
72 176 m 1
 83 178 93 176 104 175 c 0
 114 174 124 176 134 176 c 0
 140 176 154 171 159 175 c 0xccec
 161 176 162 265 158 268 c 0
 155 271 75 274 73 270 c 0
 68 264 72 178 72 176 c 1
105 231 m 1
 116 235 109 254 125 250 c 0
 139 246 107 227 102 205 c 0
 100 200 111 191 103 187 c 0
 98 185 92 188 91 193 c 0
 89 204 100 213 98 220 c 0
 95 232 82 240 94 247 c 0
 108 255 103 240 105 231 c 1
320 163 m 1
 277 164 239 171 231 165 c 0
 225 161 230 79 232 77 c 0
 235 73 319 73 319 73 c 1xeccc
 323 76 320 91 320 96 c 0
 319 118 321 141 320 163 c 1
72 148 m 0
 74 72 62 80 94 79 c 0
 162 77 161 69 161 98 c 0xdcdc
 160 167 160 165 159 167 c 1xdcec
 156 171 131 168 131 168 c 2
 64 171 71 176 72 148 c 0
73 72 m 0
 71 67 69 22 74 22 c 0
 81 22 90 34 94 38 c 2
 122 60 l 2
 124 62 131 68 129 71 c 1
 127 75 75 76 73 72 c 0
153 52 m 1
 163 44 161 53 161 61 c 0
 161 82 122 74 153 52 c 1
230 52 m 0
 230 35 231 19 230 2 c 0
 229 -24 232 -20 254 -21 c 2
 299 -22 l 2
 322 -23 324 -28 322 -2 c 0
 320 67 329 67 299 66 c 0xeccc
 228 65 231 75 230 52 c 0
119 50 m 0
 105 39 91 28 78 16 c 0
 56 -4 63 3 76 -12 c 0
 88 -25 102 -40 116 -52 c 0
 134 -70 130 -66 152 -47 c 0
 174 -28 200 -11 199 -3 c 0
 198 3 197 -1 148 48 c 0
 127 69 133 61 119 50 c 0
231 -117 m 1
 239 -115 244 -105 249 -99 c 0
 251 -97 308 -38 310 -36 c 0
 320 -24 304 -29 249 -27 c 0
 221 -25 230 -22 230 -93 c 0
 230 -100 229 -109 231 -117 c 1
EndSplineSet
EndChar

StartChar: Z
Encoding: 90 90 26
Width: 370
Flags: HMW
VStem: 5 323
LayerCount: 2
Fore
SplineSet
91 140 m 1
 92 139 190 71 190 71 c 2
 207 59 261 9 299 33 c 0
 308 39 324 65 328 59 c 0
 332 52 259 -42 259 -42 c 1
 254 -51 248 -69 238 -72 c 0
 221 -77 203 -62 190 -54 c 0
 118 -14 67 26 29 50 c 0
 21 55 9 57 21 69 c 0
 29 76 35 83 40 91 c 2
 111 195 l 2
 129 222 134 219 117 228 c 0
 107 234 97 242 86 245 c 0
 58 254 78 254 110 312 c 0
 123 335 122 337 140 328 c 1
 170 311 l 2
 182 304 182 302 189 314 c 0
 200 334 216 348 216 356 c 0
 216 361 211 360 182 378 c 0
 112 423 67 450 28 432 c 0
 24 430 6 413 5 421 c 0
 5 428 27 447 30 450 c 0
 35 456 56 489 75 514 c 0
 83 523 74 538 130 528 c 0
 174 520 174 514 201 499 c 2
 269 460 l 1
 293 448 287 452 223 353 c 0
 187 297 185 304 204 292 c 0
 242 270 259 272 234 245 c 1
 206 204 l 2
 191 182 200 182 152 209 c 0
 132 220 137 217 126 201 c 0
 116 188 109 171 98 158 c 0
 96 154 85 145 90 141 c 1
 92 143 l 1
 91 141 l 1
 91 140 l 1
35 445 m 1
 46 445 57 447 68 445 c 0
 116 437 182 384 207 373 c 0
 228 364 220 361 234 383 c 0
 244 399 256 415 266 431 c 0
 280 453 273 450 258 458 c 0
 188 496 166 523 104 521 c 0
 88 521 92 524 78 505 c 0
 39 450 37 454 35 445 c 1
117 309 m 0
 99 286 83 260 83 257 c 0
 84 254 126 227 134 229 c 0
 136 230 160 268 168 282 c 0
 176 297 185 295 167 306 c 0
 126 330 129 325 117 309 c 0
172 275 m 0
 160 254 140 234 142 225 c 0
 143 220 188 196 192 198 c 0
 195 200 239 256 238 263 c 0
 237 266 215 280 198 288 c 0
 185 294 184 297 172 275 c 0
298 23 m 1
 272 21 276 3 198 58 c 1
 139 97 l 1
 78 140 84 140 72 120 c 0
 49 80 27 67 29 62 c 0
 31 58 112 5 112 5 c 1
 200 -51 220 -67 235 -63 c 0
 242 -61 244 -53 248 -47 c 2
 248 -47 296 11 298 23 c 1
EndSplineSet
EndChar

StartChar: a
Encoding: 97 97 27
Width: 383
Flags: HMW
VStem: 32 105<24 64> 198 106<54 109>
LayerCount: 2
Fore
SplineSet
123 268 m 1
 116 269 108 268 101 270 c 0
 27 292 26 352 26 352 c 1
 24 364 23 376 28 388 c 0
 46 429 86 450 118 478 c 0
 122 482 125 488 129 492 c 0
 162 521 159 529 169 532 c 0
 177 535 180 525 202 514 c 0
 287 472 308 476 312 474 c 0
 320 467 302 458 300 448 c 0
 298 440 298 432 298 424 c 0
 298 274 293 422 301 274 c 0
 301 272 303 120 303 98 c 0
 303 88 300 76 302 67 c 0
 307 48 324 34 341 24 c 0
 362 12 379 3 362 -7 c 0
 351 -14 340 -20 332 -29 c 0
 320 -41 307 -51 296 -63 c 0
 291 -70 286 -80 277 -79 c 0
 269 -79 261 -69 256 -65 c 0
 222 -34 186 -4 181 -4 c 0
 173 -5 165 -16 160 -21 c 0
 147 -34 130 -44 118 -58 c 0
 114 -63 105 -81 97 -77 c 0
 92 -75 88 -67 84 -64 c 2
 38 -19 l 2
 26 -7 9 0 21 12 c 1
 29 24 32 14 32 32 c 0
 32 36 30 33 30 75 c 0
 30 87 27 172 28 174 c 0
 30 179 77 214 105 246 c 0
 111 253 121 259 123 268 c 1
190 328 m 2
 190 328 191 399 192 401 c 0
 192 403 194 407 192 410 c 0
 186 422 118 442 113 441 c 0
 97 439 64 438 42 390 c 0
 40 382 36 376 35 368 c 0
 30 313 86 269 138 278 c 0
 152 280 184 297 188 307 c 0
 191 314 190 321 190 328 c 2
123 369 m 1
 131 371 133 359 125 357 c 0
 115 355 113 368 123 369 c 1
114 354 m 0
 121 356 129 344 119 342 c 1
 110 339 105 351 114 354 c 0
188 293 m 0
 184 292 177 286 173 284 c 0
 161 276 138 271 136 268 c 0
 134 265 135 255 135 251 c 0
 135 236 135 221 136 206 c 0
 138 188 135 172 135 155 c 0
 135 134 137 113 138 92 c 0
 138 81 137 69 137 58 c 0
 137 33 141 42 148 35 c 1
 156 26 175 4 183 5 c 0
 191 7 197 14 199 21 c 0
 200 24 198 28 198 31 c 0
 198 40 198 49 198 59 c 0
 202 165 198 123 195 165 c 0
 194 173 196 182 195 190 c 0
 194 198 192 204 192 212 c 0
 192 217 192 223 192 228 c 0
 191 245 191 261 191 278 c 1
 192 281 193 294 188 293 c 0
EndSplineSet
EndChar

StartChar: b
Encoding: 98 98 28
Width: 371
Flags: HMW
VStem: 46 109<290 299 395 403> 213 108
LayerCount: 2
Fore
SplineSet
148 747 m 0
 158 749 155 745 157 621 c 0
 157 618 154 614 154 611 c 2
 155 563 l 2
 156 553 154 542 154 532 c 0
 154 525 156 519 155 512 c 1
 155 501 155 491 154 480 c 0
 153 454 156 429 155 403 c 0
 155 386 153 371 153 355 c 0
 153 336 154 317 155 299 c 0
 155 281 154 266 153 248 c 1
 153 216 155 181 155 148 c 0
 156 102 151 142 155 59 c 0
 157 32 145 40 169 19 c 0
 181 9 194 -2 209 -8 c 0
 217 -10 213 13 213 67 c 2
 213 67 218 386 213 398 c 0
 211 404 179 432 171 439 c 0
 168 442 160 443 172 451 c 0
 174 453 214 488 233 508 c 0
 257 534 245 530 287 492 c 0
 295 484 336 454 336 453 c 0
 339 444 325 440 324 424 c 1
 324 376 319 167 319 167 c 2
 319 167 325 21 320 12 c 0
 317 7 272 -10 234 -29 c 0
 211 -40 187 -53 164 -62 c 0
 154 -65 149 -77 139 -79 c 0
 119 -81 106 -64 92 -53 c 0
 36 -10 42 -37 44 8 c 0
 44 22 45 124 45 152 c 1
 46 167 48 181 48 196 c 0
 48 208 46 219 46 231 c 0
 49 297 47 362 46 428 c 0
 46 440 49 546 44 626 c 0
 44 630 41 633 42 638 c 0
 43 646 90 684 122 721 c 0
 132 732 146 747 148 747 c 0
EndSplineSet
EndChar

StartChar: c
Encoding: 99 99 29
Width: 254
Flags: HMW
VStem: 48 109
LayerCount: 2
Fore
SplineSet
258 539 m 0
 276 543 282 540 279 533 c 0
 275 525 259 514 227 459 c 0
 214 435 218 425 196 429 c 0
 187 431 163 431 158 423 c 1
 158 367 l 2
 158 357 160 237 160 237 c 1
 160 237 159 64 161 47 c 0
 163 36 213 14 213 6 c 0
 213 -1 210 9 150 -59 c 0
 138 -73 134 -86 118 -68 c 0
 100 -47 63 -20 53 -14 c 0
 49 -12 39 -10 37 -5 c 0
 32 4 49 0 48 34 c 0
 47 242 57 359 52 411 c 0
 50 433 36 426 74 456 c 1
 74 456 111 485 138 523 c 0
 148 537 136 537 169 533 c 1
 169 533 223 532 243 535 c 0
 248 535 253 538 258 539 c 0
EndSplineSet
EndChar

StartChar: d
Encoding: 100 100 30
Width: 371
Flags: HMW
VStem: 46 105<145 231> 214 110
LayerCount: 2
Fore
SplineSet
102 691 m 0
 131 711 120 730 141 708 c 0
 160 689 172 665 280 568 c 0
 302 548 323 525 325 520 c 0
 327 511 322 482 324 424 c 0
 326 379 324 333 323 288 c 0
 322 253 324 219 324 185 c 0
 324 173 321 162 321 150 c 0
 321 134 322 119 323 102 c 0
 323 90 320 57 324 39 c 0
 327 22 330 28 312 21 c 0
 268 3 225 -20 222 -22 c 0
 217 -24 211 -26 207 -29 c 0
 169 -51 149 -63 144 -68 c 0
 142 -70 139 -73 135 -74 c 0
 127 -76 135 -68 97 -42 c 1
 47 -5 l 1
 45 -1 46 75 46 89 c 0
 46 99 44 109 44 119 c 0
 44 129 46 140 46 151 c 0
 41 333 50 321 44 410 c 0
 42 436 40 434 58 447 c 0
 121 493 133 520 143 533 c 0
 147 539 152 536 142 547 c 0
 137 553 129 558 124 565 c 0
 116 577 105 585 96 596 c 0
 88 605 81 616 72 624 c 2
 56 640 l 2
 45 649 55 650 67 658 c 0
 80 666 89 682 102 691 c 0
212 4 m 1
 218 25 215 47 214 69 c 0
 212 160 216 298 216 298 c 2
 217 346 216 392 217 440 c 0
 217 449 217 461 213 470 c 1
 210 480 176 513 176 513 c 1
 164 525 149 545 151 521 c 0
 154 483 151 348 151 348 c 2
 151 333 153 317 153 301 c 0
 153 273 151 245 151 217 c 0
 151 195 153 173 153 151 c 0
 153 37 146 53 170 33 c 1
 182 22 196 8 212 4 c 1
EndSplineSet
EndChar

StartChar: e
Encoding: 101 101 31
Width: 276
Flags: HMW
VStem: 52 111<146 215>
LayerCount: 2
Fore
SplineSet
124 512 m 2
 136 526 146 564 175 525 c 0
 177 523 208 495 236 474 c 0
 243 469 258 464 258 453 c 0
 258 443 244 435 238 427 c 0
 234 421 231 414 227 409 c 0
 180 344 165 336 164 326 c 1
 164 326 165 326 165 254 c 0
 165 239 163 223 163 207 c 1
 164 195 166 159 166 87 c 0
 166 31 159 48 204 10 c 0
 207 7 216 3 216 -3 c 0
 215 -11 198 -16 192 -19 c 0
 189 -21 149 -58 146 -62 c 0
 141 -67 136 -79 128 -81 c 0
 119 -83 113 -67 108 -62 c 1
 103 -55 95 -53 89 -47 c 0
 85 -44 82 -39 79 -35 c 0
 51 -9 37 -6 37 2 c 0
 37 9 48 14 51 20 c 0
 55 27 50 55 50 132 c 0
 50 138 52 143 52 149 c 0
 52 157 53 389 49 412 c 1
 45 430 46 422 56 433 c 2
 124 512 l 2
161 381 m 0
 159 358 165 351 167 352 c 1
 172 352 184 366 184 371 c 0
 184 379 161 393 161 381 c 0
EndSplineSet
EndChar

StartChar: f
Encoding: 102 102 32
Width: 265
Flags: HMW
HStem: 439 92 677 109
VStem: 51 108
LayerCount: 2
Fore
SplineSet
49 610 m 0
 49 640 43 658 43 670 c 0
 43 682 50 678 57 686 c 2
 57 686 111 749 123 767 c 0
 137 787 120 781 180 781 c 0
 226 781 265 786 289 786 c 0
 290 786 292 786 293 786 c 0
 297 786 299 785 299 783 c 0
 299 777 279 764 272 758 c 1
 264 749 257 740 249 731 c 0
 226 707 226 712 208 682 c 0
 197 664 204 677 169 677 c 0
 161 677 159 674 159 668 c 0
 159 667 160 665 160 663 c 2
 159 606 l 2
 159 598 159 589 159 581 c 0
 159 577 159 572 159 568 c 0
 159 561 157 553 157 545 c 0
 157 533 159 532 176 532 c 0
 206 532 232 536 234 536 c 0
 239 536 241 535 241 532 c 0
 241 527 233 516 228 507 c 0
 203 465 207 436 194 436 c 0
 187 436 177 439 169 439 c 0
 160 439 159 436 159 424 c 0
 159 413 160 397 160 393 c 0
 160 387 161 379 161 368 c 0
 161 279 158 41 158 40 c 0
 159 32 197 10 197 3 c 0
 197 -3 185 -12 181 -15 c 2
 136 -63 l 2
 131 -68 126 -84 119 -84 c 0
 110 -84 101 -67 70 -38 c 0
 46 -16 34 -12 34 -5 c 0
 34 3 51 10 51 28 c 0
 51 33 50 40 50 51 c 0
 50 66 51 72 51 87 c 0
 51 109 48 145 48 160 c 0
 48 172 50 184 50 197 c 0
 50 226 49 374 49 374 c 2
 49 404 51 419 51 426 c 0
 51 442 12 426 12 439 c 0
 12 441 13 444 15 447 c 0
 44 495 32 482 40 501 c 0
 47 519 50 515 50 523 c 0
 50 528 49 539 48 568 c 0
 48 584 49 596 49 610 c 0
EndSplineSet
EndChar

StartChar: g
Encoding: 103 103 33
Width: 419
Flags: HMW
HStem: 438 100
VStem: 48 111 51 106 218 97
LayerCount: 2
Fore
SplineSet
403 538 m 0xb0
 406 539 418 538 416 531 c 0
 414 523 412 529 384 492 c 1
 346 444 371 431 326 438 c 0
 306 440 316 427 315 409 c 0
 314 394 317 286 317 281 c 0
 316 237 314 192 315 149 c 0
 315 136 318 122 318 109 c 0
 318 88 315 69 315 48 c 0
 319 -90 317 -75 296 -87 c 0
 278 -98 222 -150 212 -158 c 0
 190 -176 168 -192 146 -210 c 0
 135 -218 132 -238 118 -227 c 2
 118 -227 55 -160 39 -162 c 0
 37 -163 17 -182 17 -168 c 0
 17 -159 40 -149 66 -122 c 0
 75 -113 82 -103 91 -95 c 2
 108 -80 l 2
 120 -68 97 -57 83 -42 c 0
 75 -34 67 -24 58 -16 c 0
 52 -11 40 -6 38 2 c 0
 35 11 53 20 55 28 c 0
 57 34 53 133 51 306 c 0xb0
 51 355 46 381 48 386 c 0xd0
 53 397 102 452 148 524 c 0
 150 528 152 535 157 537 c 0
 164 540 177 532 220 532 c 0
 402 534 395 536 403 538 c 0xb0
158 435 m 0
 154 429 156 416 156 409 c 0
 158 387 156 409 158 266 c 0xd0
 158 237 157 207 157 178 c 0
 157 159 159 138 158 118 c 0
 155 30 158 38 173 26 c 0
 191 12 187 5 206 23 c 0
 223 40 213 25 219 90 c 0
 221 122 219 153 218 184 c 0
 218 204 220 223 221 242 c 1
 221 242 219 243 218 348 c 0
 218 366 215 384 216 402 c 0
 217 411 221 426 216 434 c 0
 214 438 160 438 158 435 c 0
173 -21 m 0
 161 -32 146 -42 138 -57 c 0
 135 -63 121 -70 123 -78 c 0
 124 -82 150 -106 170 -122 c 0
 182 -133 198 -152 207 -151 c 1
 215 -149 215 -127 215 -43 c 1
 215 -43 216 -43 218 10 c 0
 219 35 187 -9 173 -21 c 0
EndSplineSet
EndChar

StartChar: h
Encoding: 104 104 34
Width: 341
Flags: HMW
VStem: 46 102 209 92<-11 12 12 69 105 109>
LayerCount: 2
Fore
SplineSet
142 798 m 0
 149 800 150 786 150 782 c 0
 149 760 153 741 151 719 c 0
 146 671 151 646 151 638 c 0
 147 476 149 491 147 476 c 0
 146 466 142 440 153 451 c 1
 186 478 l 1
 222 511 229 525 240 527 c 0
 248 529 251 516 256 510 c 0
 268 495 283 481 297 468 c 0
 301 464 309 463 311 458 c 0
 316 449 303 446 301 429 c 1
 301 345 l 2
 301 259 303 344 300 202 c 0
 299 170 301 140 302 109 c 0
 302 101 300 93 300 85 c 0
 300 79 302 74 302 69 c 0
 300 -4 302 37 302 -12 c 0
 302 -34 304 -16 278 -48 c 0
 271 -56 244 -79 212 -142 c 0
 211 -144 210 -150 207 -151 c 0
 196 -153 207 -107 208 -95 c 0
 210 -67 209 -39 209 -11 c 0
 209 53 213 2 209 184 c 0
 207 292 209 404 207 408 c 0
 203 418 164 446 163 446 c 0
 158 447 149 434 148 430 c 1
 148 425 147 56 147 54 c 0
 148 47 157 40 162 36 c 0
 171 28 177 19 187 12 c 0
 191 10 201 18 202 12 c 0
 204 5 188 -3 184 -7 c 0
 167 -26 145 -40 129 -60 c 1
 110 -82 110 -76 94 -60 c 1
 81 -48 69 -34 56 -22 c 0
 51 -18 38 -14 37 -6 c 0
 36 1 49 2 49 19 c 0
 48 88 48 159 48 228 c 0
 48 237 46 245 46 254 c 0
 46 261 49 267 48 274 c 0
 47 279 45 284 45 289 c 0
 44 305 48 322 48 338 c 0
 48 356 45 375 45 393 c 0
 45 417 52 554 46 612 c 0
 45 621 43 630 42 639 c 0
 37 691 42 686 62 707 c 0
 106 755 134 796 142 798 c 0
EndSplineSet
EndChar

StartChar: i
Encoding: 105 105 35
Width: 228
Flags: HMW
HStem: -74 18G 516 17G 605 9
VStem: 61 102 78 22
LayerCount: 2
Fore
SplineSet
78 624 m 0xe8
 78 636 105 654 118 654 c 0
 121 654 123 652 121 649 c 1
 118 647 100 640 100 628 c 0
 100 620 106 614 113 614 c 0
 121 614 122 622 127 621 c 0
 134 619 123 605 108 605 c 0
 97 605 78 612 78 624 c 0xe8
64 404 m 0
 64 436 21 448 21 455 c 0
 21 459 26 464 40 473 c 0
 43 475 80 509 80 509 c 1
 93 524 98 532 104 532 c 0
 108 532 113 529 120 521 c 0
 165 476 179 472 179 467 c 0
 179 459 163 456 162 447 c 0
 162 446 163 404 163 353 c 0
 163 350 161 66 162 57 c 0
 165 25 209 15 209 7 c 0
 209 -3 197 -1 142 -55 c 0
 129 -68 124 -74 119 -74 c 0
 111 -74 106 -57 70 -24 c 0
 48 -4 35 -5 35 0 c 0
 35 9 59 16 59 47 c 0
 59 62 56 84 56 126 c 0
 56 162 60 163 60 181 c 0
 60 185 60 187 60 191 c 0
 60 205 59 219 59 233 c 0
 59 255 61 239 61 323 c 0xf0
 61 334 61 345 61 359 c 0
 61 362 63 366 64 369 c 1
 64 377 62 383 62 390 c 0
 62 394 64 398 64 404 c 0
EndSplineSet
EndChar

StartChar: k
Encoding: 107 107 36
Width: 393
Flags: HMW
VStem: 48 104
LayerCount: 2
Fore
SplineSet
154 263 m 1
 153 255 153 246 153 241 c 0
 152 231 154 92 152 75 c 0
 150 47 150 52 161 40 c 0
 185 12 197 7 198 2 c 1
 198 -6 176 -17 158 -32 c 0
 93 -87 138 -92 55 -17 c 0
 51 -13 36 -7 37 1 c 0
 38 8 47 10 48 17 c 0
 48 22 46 27 47 33 c 1
 47 40 48 46 48 53 c 2
 48 270 l 1
 48 270 49 270 50 312 c 0
 51 329 49 344 50 362 c 0
 52 465 56 492 48 621 c 0
 48 629 50 639 50 647 c 0
 50 658 46 667 46 678 c 1
 47 687 61 696 68 702 c 0
 80 714 90 726 101 738 c 0
 113 751 102 737 139 783 c 0
 141 785 144 789 148 790 c 0
 161 792 149 752 152 716 c 0
 154 689 151 464 154 460 c 0
 156 458 158 460 160 462 c 2
 176 475 l 2
 203 498 226 532 234 535 c 0
 242 538 250 525 254 521 c 1
 269 510 282 495 296 482 c 0
 317 463 325 469 292 439 c 0
 292 438 265 403 242 381 c 0
 214 353 234 350 246 312 c 0
 271 238 308 167 333 93 c 1
 365 1 373 27 348 -2 c 0
 340 -11 332 -19 324 -28 c 0
 306 -50 293 -79 286 -71 c 1
 275 -35 l 2
 274 -32 272 -28 270 -25 c 0
 238 74 254 25 232 79 c 2
 168 241 l 2
 165 249 161 258 157 263 c 1
 154 263 l 1
165 452 m 0
 151 447 154 434 152 422 c 0
 149 394 156 364 153 336 c 0
 152 329 152 302 157 303 c 0
 163 305 170 317 174 321 c 2
 217 367 l 2
 238 389 238 384 218 402 c 1
 209 411 172 454 165 452 c 0
EndSplineSet
EndChar

StartChar: l
Encoding: 108 108 37
Width: 243
Flags: HMW
VStem: 40 112<632 635>
LayerCount: 2
Fore
SplineSet
40 608 m 0
 40 710 35 683 58 711 c 1
 79 733 136 790 145 807 c 0
 146 808 146 817 154 809 c 0
 157 807 155 809 153 763 c 0
 153 761 157 742 152 635 c 0
 152 630 154 630 152 588 c 0
 150 526 153 433 153 278 c 0
 153 268 152 258 152 248 c 0
 152 209 154 167 152 128 c 0
 150 109 154 89 154 70 c 0
 153 39 149 54 201 8 c 0
 209 1 226 -1 202 -18 c 1
 181 -31 165 -51 165 -51 c 2
 158 -57 151 -61 145 -69 c 0
 127 -91 130 -86 108 -63 c 0
 71 -24 41 -10 37 -1 c 0
 34 6 42 -2 44 37 c 0
 45 57 44 77 44 97 c 0
 44 106 46 115 46 125 c 2
 46 125 45 252 45 329 c 0
 45 604 40 546 40 608 c 0
EndSplineSet
EndChar

StartChar: m
Encoding: 109 109 38
Width: 570
Flags: HMW
HStem: -75 18G -0 15 452 12 522 17G
VStem: 67 101 237 101 404 98
LayerCount: 2
Fore
SplineSet
68 392 m 0
 68 430 21 440 21 451 c 0
 21 458 41 468 83 519 c 0
 86 522 89 526 92 530 c 0
 94 533 96 539 100 539 c 0
 110 539 118 519 149 493 c 0
 153 490 158 488 161 484 c 0
 175 469 185 464 192 464 c 0
 202 464 207 474 213 479 c 0
 245 509 261 539 272 539 c 0
 282 539 336 463 357 460 c 0
 366 458 373 472 378 477 c 0
 391 489 404 499 416 511 c 0
 419 514 430 533 437 533 c 0
 448 533 474 493 506 467 c 0
 508 464 513 464 515 461 c 0
 525 449 499 447 499 429 c 0
 499 424 502 418 502 381 c 0
 502 372 502 372 502 358 c 0
 502 325 502 292 502 259 c 0
 502 237 502 226 502 222 c 0
 502 208 504 194 504 180 c 0
 504 174 504 142 504 116 c 0
 504 33 507 40 519 30 c 0
 539 12 549 6 549 1 c 0
 549 -5 548 1 484 -62 c 0
 479 -68 474 -77 467 -77 c 0
 458 -77 453 -56 401 -13 c 0
 392 -5 388 0 384 -0 c 0
 380 0 376 -5 364 -16 c 2
 313 -62 l 2
 309 -66 303 -78 296 -78 c 0
 295 -78 l 0
 285 -78 288 -67 232 -17 c 0
 221 -8 216 -3 211 -3 c 0
 206 -3 201 -9 189 -21 c 0
 177 -33 161 -42 150 -55 c 0
 140 -67 136 -75 131 -75 c 0
 124 -75 49 -8 48 -3 c 1
 61 32 61 -5 61 49 c 0
 60 62 64 111 65 143 c 0
 65 146 63 150 63 153 c 1
 69 164 63 160 65 167 c 1
 65 174 67 181 67 191 c 0
 67 205 65 217 65 231 c 0
 65 234 65 236 65 238 c 0
 65 261 67 253 67 272 c 0
 67 292 65 326 65 339 c 0
 65 365 68 380 68 392 c 0
234 404 m 0
 234 424 200 452 192 452 c 0
 185 452 171 441 169 435 c 0
 167 426 166 410 166 394 c 0
 166 367 168 338 168 330 c 2
 168 329 l 2
 168 320 168 310 168 301 c 0
 168 268 168 235 169 202 c 0
 169 195 167 202 167 115 c 0
 167 82 168 49 170 44 c 0
 175 33 201 11 209 11 c 0
 209 11 231 13 231 42 c 0
 231 135 237 133 237 216 c 0
 237 235 236 254 236 279 c 0
 236 293 237 293 237 294 c 0
 234 338 233 363 233 379 c 0
 233 393 234 400 234 404 c 0
402 147 m 0
 402 171 407 197 407 229 c 0
 407 261 405 292 404 324 c 2
 404 324 404 331 404 342 c 0
 404 365 403 403 399 413 c 1
 393 424 365 450 355 450 c 0
 348 450 339 438 338 433 c 0
 338 432 337 411 337 391 c 0
 337 351 338 355 338 346 c 0
 338 335 337 325 337 314 c 0
 337 299 338 225 338 166 c 0
 338 121 336 86 336 64 c 0
 336 54 337 50 339 46 c 0
 340 45 369 15 381 15 c 0
 390 15 401 30 402 35 c 1
 403 84 l 1
 403 84 402 129 402 147 c 0
EndSplineSet
EndChar

StartChar: n
Encoding: 110 110 39
Width: 405
Flags: HMW
HStem: -1 11 447 13 517 17G
VStem: 69 99 237 96 240 101
LayerCount: 2
Fore
SplineSet
70 404 m 0xf4
 70 420 21 449 21 455 c 0
 21 464 37 461 70 501 c 0
 73 505 78 508 82 513 c 0
 84 516 95 534 104 534 c 0
 115 534 136 495 170 471 c 0
 180 464 184 460 188 460 c 0
 198 460 260 530 271 530 c 1
 279 529 281 519 287 516 c 0
 302 505 314 490 330 478 c 0
 338 472 348 467 348 460 c 0
 348 453 336 446 334 441 c 0
 333 439 333 427 333 409 c 0xf8
 333 335 341 77 341 40 c 1
 343 35 360 19 372 11 c 0
 375 8 385 5 385 -1 c 0
 385 -1 l 0
 385 -8 370 -14 365 -18 c 0
 331 -44 319 -79 306 -79 c 0
 303 -79 300 -77 297 -74 c 2
 282 -59 l 2
 281 -58 226 -1 216 -1 c 0
 210 -1 200 -11 165 -42 c 0
 161 -46 155 -48 152 -52 c 0
 147 -58 139 -71 131 -71 c 0
 123 -71 93 -32 71 -16 c 0
 67 -13 51 -5 51 2 c 0
 51 9 64 17 67 22 c 0
 69 24 69 32 69 44 c 0
 69 61 68 88 68 119 c 0
 68 138 68 160 70 182 c 0
 70 186 69 182 69 219 c 0
 69 236 70 242 70 277 c 0
 70 313 68 316 68 344 c 0
 68 380 70 398 70 404 c 0xf4
184 447 m 0
 172 447 168 424 168 416 c 0
 168 410 169 404 170 398 c 0
 170 346 170 356 170 346 c 0
 170 337 169 327 169 318 c 0
 169 314 169 310 169 306 c 0
 169 289 170 273 170 256 c 0
 169 219 170 218 170 178 c 0
 170 173 170 170 170 165 c 0
 170 132 169 97 169 73 c 0
 169 59 169 48 171 45 c 0
 174 37 205 11 215 11 c 0
 225 11 240 24 240 72 c 0xf4
 240 80 240 87 240 95 c 0
 240 106 241 124 241 152 c 0
 241 226 239 196 237 255 c 0
 234 415 241 400 226 415 c 0
 210 430 195 447 184 447 c 0
EndSplineSet
EndChar

StartChar: o
Encoding: 111 111 40
Width: 363
Flags: HMW
VStem: 40 107 215 105
LayerCount: 2
Fore
SplineSet
193 523 m 0
 231 537 204 547 268 510 c 0
 342 468 320 496 320 443 c 0
 320 421 318 400 319 378 c 0
 320 362 321 348 320 332 c 0
 318 306 320 332 320 134 c 1
 320 134 319 67 320 45 c 0
 320 37 324 24 320 16 c 1
 317 12 309 12 305 10 c 0
 293 4 280 -2 268 -7 c 0
 246 -17 145 -74 140 -75 c 0
 131 -77 132 -72 94 -39 c 0
 85 -31 76 -23 66 -15 c 0
 37 6 39 -3 41 49 c 0
 42 64 41 79 40 93 c 0
 40 102 41 112 41 120 c 1
 42 126 39 131 40 137 c 0
 46 219 37 301 42 383 c 0
 47 459 25 454 55 466 c 0
 68 472 165 513 193 523 c 0
145 374 m 0
 145 300 142 309 142 292 c 0
 147 112 147 136 146 112 c 0
 144 54 141 61 158 43 c 1
 158 43 216 -16 215 4 c 0
 214 102 216 96 215 102 c 0
 213 161 215 160 215 167 c 0
 207 437 219 418 200 436 c 0
 194 442 153 476 148 474 c 0
 145 472 145 431 145 374 c 0
EndSplineSet
EndChar

StartChar: p
Encoding: 112 112 41
Width: 360
Flags: HMW
HStem: -72 102<155 197>
VStem: 39 109<-282 -114 -213 -114> 50 98 212 97<260 337>
LayerCount: 2
Fore
SplineSet
231 518 m 0xb0
 260 542 250 530 292 488 c 0
 294 486 325 461 326 457 c 0
 328 451 314 445 312 440 c 1
 312 440 308 354 308 319 c 0
 308 278 312 282 312 119 c 0
 312 111 309 97 314 46 c 0
 317 20 310 24 275 -10 c 0
 263 -22 252 -35 240 -46 c 0
 203 -81 228 -72 166 -72 c 0
 144 -72 147 -72 148 -114 c 0
 148 -116 146 -231 143 -239 c 0
 141 -247 131 -253 125 -258 c 0
 120 -263 116 -269 111 -274 c 0
 100 -285 65 -315 55 -327 c 0
 51 -332 45 -340 38 -342 c 0
 34 -343 32 -341 39 -282 c 1
 39 -213 l 2xd0
 39 -185 49 -82 41 -75 c 0
 33 -70 -7 -86 -5 -74 c 0
 -4 -62 39 -16 42 2 c 1
 49 29 50 55 50 72 c 0
 51 89 50 106 50 124 c 0
 50 124 51 410 49 414 c 0
 47 417 19 440 19 440 c 2
 14 444 7 447 11 454 c 0
 19 466 34 475 45 483 c 0
 59 495 88 532 96 528 c 0
 108 523 114 509 122 500 c 0
 129 492 136 487 143 479 c 0
 162 456 163 456 174 465 c 0
 198 485 207 498 231 518 c 0xb0
155 339 m 0
 155 306 153 273 153 240 c 1
 153 240 155 149 148 57 c 0xb0
 148 49 146 37 150 30 c 0
 153 25 188 24 207 30 c 0
 210 31 211 30 211 218 c 0
 211 229 213 239 214 250 c 0
 214 254 212 258 212 262 c 0
 214 444 222 407 187 441 c 0
 182 446 175 455 167 452 c 1
 154 448 155 427 155 339 c 0
EndSplineSet
EndChar

StartChar: q
Encoding: 113 113 42
Width: 365
Flags: HMW
VStem: 52 103 214 106<-6 77 -65 131>
LayerCount: 2
Fore
SplineSet
225 536 m 0
 230 537 233 529 236 526 c 0
 258 499 318 455 318 455 c 1
 324 446 316 384 318 318 c 0
 318 309 319 299 319 290 c 0
 315 187 313 267 318 176 c 1
 320 77 l 1
 316 -65 320 -37 320 -65 c 0
 321 -103 319 -140 319 -177 c 0
 319 -195 325 -215 322 -234 c 0
 320 -245 302 -250 294 -256 c 0
 276 -270 220 -328 210 -329 c 0
 200 -330 206 -311 206 -311 c 1
 213 -178 207 -172 207 -172 c 1
 206 -169 208 -165 208 -162 c 0
 212 -137 212 -21 212 -21 c 2
 212 -16 214 -11 214 -6 c 0
 215 16 212 -6 214 131 c 0
 215 184 218 366 218 367 c 0
 220 406 220 399 202 416 c 0
 193 425 161 461 160 461 c 0
 152 464 156 446 156 441 c 0
 165 333 152 56 158 41 c 0
 166 22 207 6 206 -4 c 0
 206 -10 191 -17 186 -20 c 0
 171 -32 127 -79 121 -78 c 0
 111 -76 121 -74 56 -23 c 0
 41 -11 30 -9 42 3 c 0
 61 22 53 16 53 45 c 1
 54 58 55 70 55 83 c 0
 55 95 52 83 53 126 c 0
 53 137 52 147 52 158 c 0
 52 165 53 171 52 178 c 1
 52 186 50 194 51 202 c 0
 51 205 52 210 52 213 c 0
 52 221 51 231 51 239 c 0
 50 257 54 274 55 292 c 0
 57 357 53 366 52 375 c 0
 52 378 53 383 52 386 c 0
 51 394 48 403 51 410 c 0
 56 419 118 454 148 478 c 0
 166 493 185 509 205 522 c 0
 211 525 217 535 225 536 c 0
EndSplineSet
EndChar

StartChar: r
Encoding: 114 114 43
Width: 326
Flags: HMW
VStem: 62 104<167 279 279 347>
LayerCount: 2
Fore
SplineSet
227 513 m 0
 239 531 239 542 252 528 c 0
 284 496 249 526 307 476 c 0
 329 458 325 467 269 399 c 0
 265 394 260 381 252 383 c 0
 249 384 187 454 175 452 c 0
 171 451 165 443 164 439 c 1
 167 279 l 2
 168 248 166 218 166 186 c 1
 166 186 171 56 172 54 c 0
 173 47 196 30 212 11 c 0
 214 8 222 6 222 2 c 0
 222 -10 205 -10 158 -56 c 0
 152 -62 143 -75 135 -77 c 0
 127 -79 120 -64 115 -60 c 0
 93 -38 54 -6 52 1 c 0
 50 9 60 15 62 22 c 0
 65 33 64 49 63 61 c 0
 61 103 62 146 62 188 c 0
 62 214 61 187 61 315 c 0
 61 323 62 332 62 340 c 0
 62 354 60 368 62 383 c 1
 62 391 64 404 60 412 c 1
 52 425 19 436 21 447 c 0
 22 451 56 485 74 518 c 0
 81 530 82 548 110 519 c 0
 115 514 169 472 171 468 c 0
 179 456 185 473 208 496 c 0
 214 502 222 506 227 513 c 0
EndSplineSet
EndChar

StartChar: s
Encoding: 115 115 44
Width: 365
Flags: HMW
VStem: 213 111
LayerCount: 2
Fore
SplineSet
128 517 m 0
 136 527 139 544 158 528 c 0
 204 491 301 444 309 446 c 0
 319 448 320 457 328 463 c 0
 331 466 345 474 343 464 c 0
 343 461 343 464 319 432 c 0
 303 412 260 343 258 340 c 0
 253 333 247 329 248 320 c 1
 248 320 322 255 340 245 c 0
 362 233 325 232 322 219 c 0
 318 206 323 145 323 145 c 2
 324 134 322 124 322 113 c 0
 322 105 324 96 324 88 c 0
 324 87 322 58 324 42 c 0
 327 15 328 22 306 4 c 0
 289 -9 272 -21 255 -34 c 1
 255 -34 228 -62 227 -64 c 0
 209 -91 221 -76 182 -58 c 0
 144 -40 110 -18 72 -3 c 0
 26 15 46 27 12 -22 c 0
 10 -25 7 -31 3 -32 c 1
 1 -34 -7 -32 -7 -29 c 0
 -7 -23 10 -4 18 8 c 2
 42 48 l 1
 86 114 106 132 107 146 c 0
 107 148 37 206 37 206 c 1
 19 218 l 2
 6 227 8 227 19 235 c 0
 45 255 30 245 32 313 c 0
 32 331 36 362 32 402 c 0
 30 428 28 424 55 443 c 1
 80 463 110 500 112 502 c 0
 117 507 124 511 128 517 c 0
137 406 m 0
 142 384 138 280 142 268 c 0
 147 256 171 241 175 243 c 1
 175 243 200 277 225 318 c 0
 228 323 234 326 236 332 c 0
 239 339 253 348 249 357 c 0
 246 364 203 384 192 389 c 0
 158 407 131 434 137 406 c 0
162 202 m 0
 135 165 104 118 99 108 c 0
 93 96 96 98 103 96 c 0
 112 93 111 89 188 56 c 0
 214 45 219 42 217 56 c 0
 216 67 216 77 213 162 c 0
 211 207 220 196 188 220 c 0
 177 228 180 227 162 202 c 0
EndSplineSet
EndChar

StartChar: t
Encoding: 116 116 45
Width: 240
Flags: HMW
HStem: 439 90
VStem: 63 98
LayerCount: 2
Fore
SplineSet
54 439 m 0
 51 439 47 438 37 438 c 0
 25 438 21 440 21 444 c 0
 21 451 29 455 73 494 c 0
 110 526 158 580 166 580 c 0
 167 580 l 0
 171 580 171 578 171 574 c 0
 171 564 163 545 163 535 c 0
 163 530 164 529 172 529 c 0
 189 529 229 536 250 536 c 0
 258 536 263 535 263 532 c 0
 263 529 199 443 196 441 c 0
 193 439 189 438 185 438 c 0
 180 438 174 439 170 439 c 0
 161 439 163 434 163 417 c 0
 163 394 163 357 163 357 c 2
 163 325 161 302 161 278 c 0
 161 261 163 243 163 226 c 0
 163 220 161 226 161 158 c 0
 161 90 162 84 162 69 c 0
 162 53 160 55 160 51 c 0
 160 34 214 5 214 -2 c 0
 214 -10 203 -9 149 -64 c 0
 145 -68 139 -80 132 -81 c 0
 127 -81 122 -69 65 -20 c 0
 61 -17 46 -9 46 -2 c 2
 46 -2 l 2
 46 10 62 5 63 25 c 0
 63 37 63 233 63 233 c 1
 59 298 62 261 62 316 c 0
 62 325 61 316 61 406 c 0
 61 435 60 439 54 439 c 0
EndSplineSet
EndChar

StartChar: u
Encoding: 117 117 46
Width: 406
Flags: HMW
HStem: 514 18G 518 42 540 18
VStem: 60 101 238 102
LayerCount: 2
Fore
SplineSet
256 558 m 0x38
 260 558 261 556 261 555 c 0
 261 550 238 544 234 540 c 0x38
 225 532 218 518 211 518 c 0
 205 518 194 533 177 541 c 0
 174 542 165 543 165 549 c 0
 165 554 172 561 182 561 c 0x58
 188 561 196 558 203 551 c 0
 215 539 208 541 224 550 c 0
 231 554 249 558 256 558 c 0x38
234 70 m 0
 234 89 236 93 238 108 c 0
 238 112 237 221 237 221 c 1
 238 339 238 397 238 426 c 0
 238 455 238 456 238 456 c 1
 240 462 256 468 315 511 c 0
 322 517 332 530 343 530 c 0
 346 530 346 528 346 523 c 0
 346 510 341 477 341 402 c 0
 341 375 341 367 341 358 c 0
 341 340 339 323 339 305 c 0
 339 295 340 285 340 208 c 0
 340 88 338 72 338 64 c 0
 338 27 386 10 386 0 c 0
 386 -11 353 -21 327 -54 c 0
 320 -63 311 -80 300 -80 c 0
 290 -80 282 -63 276 -57 c 0
 252 -32 216 3 212 3 c 0
 194 3 137 -71 131 -71 c 0
 122 -71 99 -45 69 -22 c 0
 57 -13 44 -10 44 -3 c 0
 44 4 60 10 60 27 c 0
 60 31 59 35 59 40 c 2
 61 87 l 2
 61 91 61 95 61 99 c 0
 61 123 59 147 59 171 c 0
 60 298 63 354 63 382 c 0
 63 409 61 409 53 419 c 0
 34 440 21 445 21 452 c 0
 21 456 26 462 39 473 c 0
 89 514 90 530 101 530 c 0x98
 108 530 103 525 130 500 c 2
 162 471 l 2
 166 467 179 463 179 456 c 0
 179 450 171 445 169 439 c 0
 165 426 161 260 161 94 c 0
 161 40 167 26 212 9 c 0
 220 7 217 5 225 13 c 0
 233 20 235 28 235 40 c 0
 235 48 234 58 234 70 c 0
EndSplineSet
EndChar

StartChar: v
Encoding: 118 118 47
Width: 351
Flags: HMW
HStem: 453 13<168 178> 521 18G
VStem: 58 101 222 88 224 94
LayerCount: 2
Fore
SplineSet
173 467 m 0xf0
 185 467 241 538 250 538 c 0
 253 538 258 533 267 525 c 0
 318 477 331 467 331 462 c 0
 331 454 320 445 318 434 c 0xe8
 316 423 318 45 310 31 c 0
 308 26 300 24 295 22 c 2
 295 22 180 -45 158 -68 c 0
 156 -70 154 -76 148 -76 c 0
 141 -76 133 -64 128 -60 c 0
 109 -47 91 -31 73 -18 c 0
 55 -6 51 -11 51 7 c 0
 51 21 54 49 54 112 c 0
 54 124 53 136 52 148 c 0
 52 152 54 157 54 162 c 2
 54 178 l 2
 54 209 52 208 52 215 c 0
 52 232 58 281 58 298 c 0
 58 307 58 317 58 327 c 0
 59 357 60 375 60 388 c 0
 60 412 54 421 22 449 c 0
 18 452 15 455 15 457 c 0
 15 460 20 466 35 478 c 0
 70 506 88 536 99 536 c 0
 104 536 163 467 173 467 c 0xf0
175 453 m 0
 162 453 158 426 158 404 c 2
 159 155 l 2
 159 141 157 127 157 113 c 0
 157 105 158 97 158 89 c 0
 158 81 156 76 156 68 c 0
 156 29 176 29 192 15 c 0
 205 3 213 -2 218 -2 c 0
 222 -2 223 3 223 11 c 0
 223 25 219 49 219 76 c 0
 219 98 222 100 222 118 c 0xf0
 222 130 220 145 220 157 c 0
 220 244 224 351 224 373 c 0
 224 419 218 420 190 442 c 0
 186 445 181 453 175 453 c 0
EndSplineSet
EndChar

StartChar: w
Encoding: 119 119 48
Width: 548
Flags: HMW
VStem: 76 102<84 150> 80 100<373 425> 237 109 408 103
LayerCount: 2
Fore
SplineSet
72 204 m 2xb0
 76 286 l 2xb0
 76 294 77 301 77 309 c 0
 80 373 l 0
 80 380 84 393 81 402 c 0
 66 437 14 436 22 448 c 1
 22 448 53 468 91 516 c 1
 102 528 107 537 113 535 c 0
 119 533 123 522 128 518 c 0
 164 485 198 461 201 462 c 0
 208 464 242 506 242 506 c 2
 245 510 251 513 254 518 c 0
 278 552 282 533 297 520 c 0
 311 507 326 495 342 482 c 0
 369 461 361 457 386 484 c 1
 428 527 l 2
 432 532 437 542 444 544 c 0
 453 547 460 532 517 484 c 0
 522 479 533 474 533 466 c 0
 533 458 516 454 514 431 c 0
 510 330 515 340 515 330 c 2
 515 330 514 330 512 287 c 0
 512 275 514 260 513 248 c 1
 513 230 511 215 510 197 c 0
 510 186 511 25 509 22 c 0
 504 14 488 13 430 -17 c 1
 422 -20 414 -26 405 -30 c 2
 405 -30 392 -34 353 -55 c 0
 315 -76 330 -73 298 -48 c 0
 282 -36 259 -11 247 -3 c 0
 230 8 235 -5 237 102 c 0
 238 151 237 151 237 151 c 1
 245 209 235 210 242 248 c 0
 244 256 242 267 242 276 c 1
 243 281 244 287 244 292 c 0
 246 444 255 402 227 433 c 0
 189 475 180 429 180 420 c 0x70
 178 381 180 341 179 302 c 2
 177 88 l 2
 177 80 174 73 175 65 c 0
 179 35 233 22 232 7 c 0
 232 0 190 -24 151 -72 c 0
 149 -74 146 -78 143 -79 c 0
 136 -80 119 -56 111 -48 c 0
 110 -48 66 -9 60 -5 c 0
 38 11 76 4 74 43 c 0
 71 108 75 87 76 145 c 0
 76 155 74 165 75 175 c 1
 74 180 77 185 76 190 c 0
 76 195 72 199 72 204 c 2xb0
370 454 m 0
 364 453 351 439 349 433 c 0
 348 429 347 281 347 248 c 0
 346 10 325 66 387 4 c 0
 399 -8 411 -17 409 -4 c 0
 407 17 409 24 407 31 c 0
 407 32 407 31 407 46 c 1
 410 74 407 125 408 156 c 1
 411 209 421 412 411 425 c 0
 405 433 373 454 370 454 c 0
EndSplineSet
EndChar

StartChar: x
Encoding: 120 120 49
Width: 378
Flags: HMW
VStem: 92 97<265 292>
LayerCount: 2
Fore
SplineSet
82 87 m 1
 83 92 88 94 89 98 c 1
 89 98 94 164 89 167 c 1
 81 175 28 151 28 165 c 0
 28 171 87 255 92 265 c 0
 92 266 99 400 97 405 c 0
 95 411 89 414 84 417 c 2
 62 435 l 2
 58 438 41 445 44 452 c 0
 52 467 73 475 104 518 c 0
 108 524 114 538 125 532 c 0
 131 529 139 514 167 488 c 0
 171 485 176 482 180 478 c 0
 203 455 203 450 225 479 c 0
 230 485 237 488 242 494 c 0
 266 518 274 539 282 538 c 0
 291 537 281 533 328 491 c 0
 329 490 360 462 360 457 c 0
 361 450 342 436 330 423 c 0
 323 416 317 409 309 401 c 0
 306 398 301 395 298 391 c 0
 280 371 282 378 266 392 c 0
 238 415 215 446 207 447 c 0
 201 447 194 435 192 430 c 0
 187 418 189 292 189 292 c 1
 191 280 187 277 258 280 c 0
 267 281 301 288 303 280 c 0
 305 267 272 238 260 219 c 0
 230 167 242 174 222 172 c 0
 180 170 190 169 192 131 c 0
 194 100 190 52 194 43 c 0
 196 40 200 37 202 35 c 2
 225 13 l 2
 228 9 246 6 224 -14 c 0
 155 -80 175 -83 162 -85 c 0
 148 -87 116 -22 98 -29 c 0
 80 -37 62 -45 44 -53 c 0
 36 -56 29 -59 22 -61 c 0
 14 -65 6 -70 -2 -73 c 2
 -2 -73 -55 -94 -59 -92 c 0
 -69 -84 -40 -69 -35 -67 c 0
 -21 -59 -6 -47 8 -38 c 0
 16 -32 24 -29 32 -23 c 0
 44 -15 57 -1 73 1 c 1
 72 9 85 12 87 20 c 0
 89 25 85 35 88 74 c 0
 89 80 90 87 82 87 c 1
EndSplineSet
EndChar

StartChar: y
Encoding: 121 121 50
Width: 354
Flags: HMW
VStem: 56 104<222 268> 209 103<-16 269 117 269 158 269>
LayerCount: 2
Fore
SplineSet
211 501 m 1
 239 530 237 560 265 525 c 0
 268 521 273 519 276 515 c 1
 282 510 286 504 292 498 c 0
 319 473 336 466 336 458 c 0
 336 446 316 448 314 423 c 1
 314 297 l 2
 314 288 312 278 312 269 c 0
 314 198 312 200 312 198 c 0
 313 155 306 22 312 -20 c 0
 314 -38 318 -29 303 -44 c 2
 214 -133 l 2
 206 -142 194 -160 180 -162 c 0
 174 -163 176 -158 178 -155 c 0
 185 -147 196 -140 201 -130 c 0
 201 -129 206 -95 206 -95 c 2
 206 -93 204 -90 204 -87 c 0
 204 -61 209 -16 209 -16 c 1
 209 -1 205 19 209 117 c 0
 209 120 211 123 211 126 c 0
 211 138 209 151 209 164 c 0
 211 214 213 164 213 332 c 1
 214 395 222 415 190 437 c 0
 178 445 172 454 165 442 c 0
 147 409 161 364 156 306 c 0
 154 287 160 261 160 224 c 0
 160 219 158 214 158 209 c 0
 160 153 162 209 162 68 c 0
 162 38 154 46 188 8 c 0
 191 5 201 0 201 -5 c 1
 200 -8 182 -21 182 -21 c 1
 138 -59 l 2
 124 -71 127 -84 103 -60 c 0
 87 -44 104 -53 57 -12 c 0
 52 -9 39 -4 37 3 c 0
 35 11 48 15 50 21 c 0
 52 26 51 66 52 107 c 0
 52 111 51 116 51 120 c 0
 51 125 53 128 54 133 c 1
 54 145 51 157 52 169 c 0
 53 200 56 231 56 262 c 0
 56 274 53 284 54 296 c 0
 58 378 53 356 53 384 c 0
 53 395 57 409 50 419 c 0
 40 434 11 440 16 452 c 0
 22 464 35 472 44 482 c 0
 60 499 80 533 89 528 c 1
 112 507 l 1
 112 507 160 461 168 463 c 0
 176 465 179 473 185 478 c 2
 211 501 l 1
EndSplineSet
EndChar

StartChar: z
Encoding: 122 122 51
Width: 378
Flags: HMW
VStem: 8 327
LayerCount: 2
Fore
SplineSet
226 366 m 1
 220 366 165 409 113 423 c 0
 103 426 68 449 19 382 c 0
 17 379 12 371 8 376 c 0
 1 384 14 397 18 402 c 0
 56 458 91 486 102 510 c 0
 119 548 112 532 149 522 c 0
 177 515 156 526 188 512 c 0
 196 508 206 504 214 500 c 0
 232 491 262 463 298 451 c 0
 308 448 320 449 308 434 c 0
 302 426 298 418 290 410 c 0
 270 388 258 361 240 337 c 0
 235 329 223 320 225 310 c 1
 221 306 234 296 238 294 c 0
 246 288 254 280 263 275 c 0
 271 271 291 269 281 252 c 0
 278 245 271 243 266 237 c 2
 229 195 l 2
 209 172 216 172 173 206 c 0
 155 219 160 215 148 198 c 2
 118 157 l 1
 105 137 108 144 122 128 c 0
 135 114 152 102 167 90 c 1
 232 27 l 1
 274 -15 290 6 322 28 c 0
 327 31 339 37 334 25 c 0
 329 12 278 -19 242 -58 c 0
 237 -64 230 -78 223 -80 c 0
 215 -82 206 -75 198 -73 c 0
 148 -59 108 1 69 35 c 1
 65 37 63 43 58 45 c 0
 52 48 36 53 38 62 c 1
 38 62 77 114 89 132 c 0
 94 140 97 148 102 156 c 0
 122 188 146 216 148 221 c 0
 150 226 140 228 137 230 c 0
 108 251 104 246 96 250 c 0
 84 257 109 277 117 287 c 0
 157 332 150 354 174 336 c 0
 193 322 210 315 210 315 c 1
 212 315 228 338 234 350 c 0
 237 357 228 360 226 366 c 1
EndSplineSet
EndChar
